<svg id="Capa_1" data-name="Capa 1" xmlns="http://www.w3.org/2000/svg" xmlns:xlink="http://www.w3.org/1999/xlink" viewBox="0 0 768.09 900.32"><defs><style>.cls-1{fill:#fff;}.cls-2{fill:url(#Degradado_sin_nombre_29);}.cls-3{fill:#f9f9f9;}.cls-4{fill:#cbe6f7;}.cls-5{fill:#ab632e;}.cls-6{fill:#995929;}.cls-7{fill:#de9252;}.cls-8{fill:#d9833b;}.cls-9{fill:#f0f0f0;}.cls-10{fill:#e8e8e8;}.cls-11{fill:#89c8fd;}.cls-12{fill:#60b6ff;}.cls-13{fill:#baeb6c;}.cls-14{fill:#96d629;}.cls-15{fill:#ffe469;}</style><linearGradient id="Degradado_sin_nombre_29" y1="450" x2="768" y2="450" gradientUnits="userSpaceOnUse"><stop offset="0" stop-color="#4e88dd"/><stop offset="1" stop-color="#8cf2ff"/></linearGradient></defs><title>indexPageTablet</title><rect class="cls-1" x="0.09" y="0.32" width="768" height="900"/><path class="cls-2" d="M0,900V0H768C737.72,129.58,646.23,438.27,363,683,232.49,795.77,100.22,861.3,0,900Z"/><path class="cls-3" d="M206.68,147.82H185V120h21.59v5.91H191.83v5.24h13.52v5.58H191.83v5.24h14.85Z"/><path class="cls-3" d="M216,141c.29,1.79,1.91,2.46,3.7,2.46s2.71-.75,2.71-1.67c0-.7-.54-1.24-2.08-1.54l-4.25-.83c-3.87-.7-6.07-2.78-6.07-6.07,0-4.29,3.7-7.07,9-7.07s8.65,2.37,9.48,6l-6.07,1.2c-.21-1.29-1.46-2.45-3.5-2.45-1.79,0-2.37.87-2.37,1.62,0,.58.25,1.17,1.58,1.46l4.91,1c4,.83,5.78,3.2,5.78,6.28,0,4.62-4,7-9.48,7-4.91,0-9.11-1.79-9.82-6.08Z"/><path class="cls-3" d="M255.73,137.38c0,6.62-4.66,11.07-10.19,11.07a9.37,9.37,0,0,1-6.49-2.29v8.74h-6.66v-28h6.66v1.67a9.37,9.37,0,0,1,6.49-2.29C251.07,126.32,255.73,130.81,255.73,137.38Zm-6.53,0c0-3.2-2.12-5.4-5-5.4a5.41,5.41,0,0,0,0,10.81C247.08,142.79,249.2,140.63,249.2,137.38Z"/><path class="cls-3" d="M279.65,139.09H264.34c.54,2.49,2.25,4,4.49,4a4.63,4.63,0,0,0,4.45-2.41l5.91,1.21c-1.79,4.41-5.57,6.53-10.36,6.53a11.07,11.07,0,0,1,.05-22.13c5.9,0,10.64,4.24,10.77,11.06ZM264.47,135h8.61a4.18,4.18,0,0,0-4.2-3.28A4.56,4.56,0,0,0,264.47,135Z"/><path class="cls-3" d="M297.66,139l6.12,1.33c-1,5-5.45,8.16-10.65,8.16-6.24,0-11.4-4.45-11.4-11.07s5.16-11.06,11.4-11.06a10.63,10.63,0,0,1,10.65,8l-6.24,1.49a4.31,4.31,0,0,0-4.41-3.7,4.9,4.9,0,0,0-5,5.24c0,3.08,2,5.24,5,5.24A4.47,4.47,0,0,0,297.66,139Z"/><path class="cls-3" d="M314.76,120.79a3.85,3.85,0,0,1-7.69,0,3.85,3.85,0,0,1,7.69,0Zm-7.19,27V126.94h6.65v20.88Z"/><path class="cls-3" d="M341.35,147.82h-6.66v-1.66a9.39,9.39,0,0,1-6.49,2.29c-5.53,0-10.19-4.45-10.19-11.07s4.66-11.06,10.19-11.06a9.39,9.39,0,0,1,6.49,2.29v-1.67h6.66Zm-6.66-10.44a5.2,5.2,0,0,0-5.12-5.4c-2.91,0-5,2.2-5,5.4s2.12,5.41,5,5.41A5.18,5.18,0,0,0,334.69,137.38Z"/><path class="cls-3" d="M346.17,147.82V117.87h6.66v29.95Z"/><path class="cls-3" d="M365.19,120.79a3.68,3.68,0,0,1-3.87,3.7,3.64,3.64,0,0,1-3.83-3.7,3.76,3.76,0,0,1,3.83-3.79A3.8,3.8,0,0,1,365.19,120.79Zm-7.2,27V126.94h6.65v20.88Z"/><path class="cls-3" d="M374.88,141c.29,1.79,1.91,2.46,3.7,2.46s2.71-.75,2.71-1.67c0-.7-.55-1.24-2.08-1.54l-4.25-.83c-3.87-.7-6.07-2.78-6.07-6.07,0-4.29,3.7-7.07,9-7.07s8.66,2.37,9.49,6l-6.07,1.2c-.21-1.29-1.46-2.45-3.5-2.45-1.79,0-2.37.87-2.37,1.62,0,.58.25,1.17,1.58,1.46l4.91,1c3.95.83,5.78,3.2,5.78,6.28,0,4.62-4,7-9.48,7-4.91,0-9.11-1.79-9.82-6.08Z"/><path class="cls-3" d="M406.7,146.91a11.33,11.33,0,0,1-5.69,1.54c-5.2,0-8.32-2.83-8.32-8.32v-7.91H388.9v-5.28h3.79v-6.15h6.65v6.15h6.16v5.28h-6.16v7.24c0,2.17,1,3,2.79,3a6.84,6.84,0,0,0,3-.83Z"/><path class="cls-3" d="M430.79,147.82h-6.65v-1.66a9.41,9.41,0,0,1-6.49,2.29c-5.54,0-10.19-4.45-10.19-11.07s4.65-11.06,10.19-11.06a9.41,9.41,0,0,1,6.49,2.29v-1.67h6.65Zm-6.65-10.44A5.21,5.21,0,0,0,419,132c-2.91,0-5,2.2-5,5.4s2.12,5.41,5,5.41A5.19,5.19,0,0,0,424.14,137.38Z"/><path class="cls-3" d="M440.7,141c.29,1.79,1.91,2.46,3.7,2.46s2.7-.75,2.7-1.67c0-.7-.54-1.24-2.08-1.54l-4.24-.83c-3.87-.7-6.07-2.78-6.07-6.07,0-4.29,3.7-7.07,9-7.07s8.65,2.37,9.48,6l-6.07,1.2c-.21-1.29-1.45-2.45-3.49-2.45-1.79,0-2.37.87-2.37,1.62,0,.58.25,1.17,1.58,1.46l4.91,1c3.95.83,5.78,3.2,5.78,6.28,0,4.62-4,7-9.49,7-4.9,0-9.11-1.79-9.81-6.08Z"/><path class="cls-3" d="M487.16,139.09h-15.3c.54,2.49,2.24,4,4.49,4a4.63,4.63,0,0,0,4.45-2.41l5.91,1.21c-1.79,4.41-5.58,6.53-10.36,6.53a11.07,11.07,0,0,1,0-22.13c5.91,0,10.65,4.24,10.77,11.06ZM472,135h8.61a4.17,4.17,0,0,0-4.2-3.28A4.58,4.58,0,0,0,472,135Z"/><path class="cls-3" d="M511.79,135v12.81h-6.61V136.43c0-2.46-1.46-4.12-3.58-4.12-2.62,0-4.32,1.79-4.32,5.82v9.69h-6.66V126.94h6.66v2a8.57,8.57,0,0,1,6.4-2.62C508.55,126.32,511.79,129.77,511.79,135Z"/><path class="cls-3" d="M192.49,170.71a3.85,3.85,0,0,1-7.69,0,3.85,3.85,0,0,1,7.69,0Zm-7.19,27V176.87H192v20.88Z"/><path class="cls-3" d="M218.28,184.94v12.81h-6.61v-11.4c0-2.45-1.46-4.12-3.58-4.12-2.62,0-4.32,1.79-4.32,5.83v9.69h-6.66V176.87h6.66v2a8.61,8.61,0,0,1,6.4-2.62C215,176.24,218.28,179.69,218.28,184.94Z"/><path class="cls-3" d="M244.33,195.67c0,6.45-4.91,10-11.69,10-4.78,0-8.45-1.66-10.48-5l5.53-3c1.58,1.87,2.74,2.58,4.91,2.58,3,0,5.2-1.79,5.2-5.07v-.59a9.32,9.32,0,0,1-6.28,2,10.15,10.15,0,0,1,0-20.3,9.32,9.32,0,0,1,6.28,2v-1.37h6.53Zm-6.53-9.36a4.93,4.93,0,1,0-4.87,4.78A4.72,4.72,0,0,0,237.8,186.31Z"/><path class="cls-3" d="M269.66,189h-15.3c.54,2.5,2.24,4,4.49,4a4.64,4.64,0,0,0,4.45-2.42l5.91,1.21c-1.79,4.41-5.58,6.53-10.36,6.53a11.07,11.07,0,0,1,0-22.13c5.91,0,10.65,4.24,10.77,11.07Zm-15.18-4.07h8.61a4.17,4.17,0,0,0-4.2-3.29A4.57,4.57,0,0,0,254.48,184.94Z"/><path class="cls-3" d="M294.29,184.94v12.81h-6.61v-11.4c0-2.45-1.46-4.12-3.58-4.12-2.62,0-4.33,1.79-4.33,5.83v9.69h-6.65V176.87h6.65v2a8.65,8.65,0,0,1,6.41-2.62C291.05,176.24,294.29,179.69,294.29,184.94Z"/><path class="cls-3" d="M306.36,170.71a3.85,3.85,0,0,1-7.7,0,3.85,3.85,0,0,1,7.7,0Zm-7.2,27V176.87h6.66v20.88Z"/><path class="cls-3" d="M331.44,189h-15.3c.54,2.5,2.24,4,4.49,4a4.64,4.64,0,0,0,4.45-2.42l5.91,1.21c-1.79,4.41-5.58,6.53-10.36,6.53a11.07,11.07,0,0,1,0-22.13c5.91,0,10.65,4.24,10.77,11.07Zm-15.18-4.07h8.61a4.17,4.17,0,0,0-4.2-3.29A4.57,4.57,0,0,0,316.26,184.94Z"/><path class="cls-3" d="M350.25,176.74,350,183.4h-1.21c-4.66,0-7.2,2.41-7.2,7.82v6.53H334.9V176.87h6.65v4a8.07,8.07,0,0,1,7.2-4.29A5.94,5.94,0,0,1,350.25,176.74Z"/><path class="cls-3" d="M353.41,197.75V176.87h6.66v20.88Z"/><path class="cls-3" d="M387.19,197.75h-6.65v-1.67a9.41,9.41,0,0,1-6.49,2.29c-5.54,0-10.2-4.45-10.2-11.06s4.66-11.07,10.2-11.07a9.41,9.41,0,0,1,6.49,2.29v-1.66h6.65Zm-6.65-10.44a5.21,5.21,0,0,0-5.12-5.41c-2.91,0-5,2.2-5,5.41s2.12,5.4,5,5.4A5.18,5.18,0,0,0,380.54,187.31Z"/><path class="cls-3" d="M412,204.82h-7.2L408.2,197l-8.65-20.22h7.15L411.65,189l5.29-12.19h7.15Z"/><path class="cls-3" d="M458,195.67c0,6.45-4.91,10-11.69,10-4.79,0-8.45-1.66-10.48-5l5.53-3c1.58,1.87,2.74,2.58,4.91,2.58,3,0,5.2-1.79,5.2-5.07v-.59a9.32,9.32,0,0,1-6.28,2,10.15,10.15,0,0,1,0-20.3,9.32,9.32,0,0,1,6.28,2v-1.37H458Zm-6.53-9.36a4.93,4.93,0,1,0-4.87,4.78A4.72,4.72,0,0,0,451.43,186.31Z"/><path class="cls-3" d="M483.29,189H468c.54,2.5,2.24,4,4.49,4a4.64,4.64,0,0,0,4.45-2.42l5.91,1.21c-1.79,4.41-5.58,6.53-10.36,6.53a11.07,11.07,0,0,1,0-22.13c5.91,0,10.65,4.24,10.77,11.07Zm-15.18-4.07h8.61a4.17,4.17,0,0,0-4.2-3.29A4.57,4.57,0,0,0,468.11,184.94Z"/><path class="cls-3" d="M491.82,191c.29,1.79,1.92,2.45,3.71,2.45s2.7-.75,2.7-1.66c0-.71-.54-1.25-2.08-1.54l-4.24-.83c-3.87-.71-6.08-2.79-6.08-6.08,0-4.28,3.71-7.07,9-7.07s8.65,2.37,9.48,6l-6.07,1.21c-.21-1.29-1.46-2.46-3.49-2.46-1.79,0-2.38.88-2.38,1.63,0,.58.25,1.16,1.58,1.45l4.91,1c4,.83,5.79,3.2,5.79,6.28,0,4.62-4,7-9.49,7-4.91,0-9.11-1.79-9.82-6.07Z"/><path class="cls-3" d="M523.65,196.83a11.27,11.27,0,0,1-5.7,1.54c-5.2,0-8.32-2.83-8.32-8.32v-7.9h-3.79v-5.28h3.79v-6.16h6.66v6.16h6.15v5.28h-6.15v7.24c0,2.16,1,3,2.78,3a6.77,6.77,0,0,0,3-.83Z"/><path class="cls-3" d="M533.72,170.71a3.85,3.85,0,0,1-7.7,0,3.85,3.85,0,0,1,7.7,0Zm-7.2,27V176.87h6.66v20.88Z"/><path class="cls-3" d="M560,187.31c0,6.61-5.24,11-11.44,11s-11.57-4.41-11.57-11,5.24-11,11.57-11S560,180.73,560,187.31Zm-6.41,0a5.1,5.1,0,1,0-5,5.4A5.19,5.19,0,0,0,553.56,187.31Z"/><path class="cls-3" d="M584.6,184.94v12.81H578v-11.4c0-2.45-1.45-4.12-3.58-4.12-2.62,0-4.32,1.79-4.32,5.83v9.69h-6.66V176.87h6.66v2a8.61,8.61,0,0,1,6.4-2.62C581.35,176.24,584.6,179.69,584.6,184.94Z"/><path class="cls-3" d="M206.93,247.67h-6.66V246a9.42,9.42,0,0,1-6.49,2.29c-5.53,0-10.19-4.46-10.19-11.07s4.66-11.06,10.19-11.06a9.41,9.41,0,0,1,6.49,2.28v-1.66h6.66Zm-6.66-10.44a5.21,5.21,0,0,0-5.12-5.41c-2.91,0-5,2.21-5,5.41s2.12,5.41,5,5.41A5.19,5.19,0,0,0,200.27,237.23Z"/><path class="cls-3" d="M246.78,234.61v13.06h-6.61V236a3.54,3.54,0,0,0-3.5-3.86c-2.45,0-4.07,1.78-4.07,5.28v10.23h-6.66V236a3.54,3.54,0,0,0-3.54-3.86c-2.41,0-4,1.78-4,5.28v10.23h-6.65V226.79h6.65v1.91a7.91,7.91,0,0,1,6.16-2.53,7.72,7.72,0,0,1,6.82,3.53,9,9,0,0,1,7.4-3.53C243.24,226.17,246.78,229.53,246.78,234.61Z"/><path class="cls-3" d="M274.66,237.23c0,6.61-4.66,11.07-10.2,11.07A9.41,9.41,0,0,1,258,246v1.66h-6.66V217.72H258v10.73a9.41,9.41,0,0,1,6.48-2.28C270,226.17,274.66,230.66,274.66,237.23Zm-6.53,0c0-3.2-2.13-5.41-5-5.41a5.42,5.42,0,0,0,0,10.82C266,242.64,268.13,240.47,268.13,237.23Z"/><path class="cls-3" d="M285.64,220.63a3.85,3.85,0,0,1-7.69,0,3.85,3.85,0,0,1,7.69,0Zm-7.2,27V226.79h6.66v20.88Z"/><path class="cls-3" d="M310.73,238.94H295.42c.54,2.49,2.24,4,4.49,4a4.63,4.63,0,0,0,4.45-2.41l5.91,1.2c-1.79,4.41-5.58,6.54-10.36,6.54a11.07,11.07,0,0,1,0-22.13c5.91,0,10.65,4.24,10.78,11.06Zm-15.19-4.08h8.61a4.16,4.16,0,0,0-4.2-3.29A4.59,4.59,0,0,0,295.54,234.86Z"/><path class="cls-3" d="M335.35,234.86v12.81h-6.61v-11.4c0-2.45-1.46-4.11-3.58-4.11-2.62,0-4.32,1.78-4.32,5.82v9.69h-6.66V226.79h6.66v2a8.57,8.57,0,0,1,6.4-2.62C332.11,226.17,335.35,229.62,335.35,234.86Z"/><path class="cls-3" d="M355.37,246.76a11.4,11.4,0,0,1-5.7,1.54c-5.2,0-8.32-2.83-8.32-8.32v-7.91h-3.79v-5.28h3.79v-6.16H348v6.16h6.16v5.28H348v7.24c0,2.16,1,3,2.79,3a6.82,6.82,0,0,0,3-.84Z"/><path class="cls-3" d="M379.45,247.67H372.8V246a9.44,9.44,0,0,1-6.49,2.29c-5.53,0-10.19-4.46-10.19-11.07s4.66-11.06,10.19-11.06a9.43,9.43,0,0,1,6.49,2.28v-1.66h6.65Zm-6.65-10.44a5.21,5.21,0,0,0-5.12-5.41c-2.91,0-5,2.21-5,5.41s2.12,5.41,5,5.41A5.19,5.19,0,0,0,372.8,237.23Z"/><path class="cls-3" d="M384.28,247.67V217.72h6.66v29.95Z"/><polygon class="cls-1" points="545.56 173.01 551.62 173.01 556.91 166.96 550.1 166.96 545.56 173.01"/><polygon class="cls-1" points="353.43 173.77 359.48 173.77 364.78 167.72 357.97 167.72 353.43 173.77"/><path class="cls-4" d="M314,528.22c0-13.32-10.54-24.12-23.54-24.12-.51,0-1,0-1.52,0a6.34,6.34,0,0,1-6.42-4.34,33.92,33.92,0,0,0-32-23.35c-18.7,0-33.85,15.53-33.85,34.69v0a23.55,23.55,0,0,0-20.85,14.6,6.3,6.3,0,0,0,5.85,8.68h106a6.27,6.27,0,0,0,6.3-6.17Z"/><path class="cls-5" d="M325.28,475.19l60.13-128.51a9.67,9.67,0,0,1,17.62,0l59.76,128.49L397,626.59Z"/><path class="cls-6" d="M403,346.7a9.67,9.67,0,0,0-17.62,0l-8,17.19,68.51,151.85,16.91-40.53Z"/><path class="cls-7" d="M226.05,586.44l85.63-183.11a9.66,9.66,0,0,1,17.61,0l84.86,182.33Z"/><path class="cls-8" d="M329.29,403.35a9.66,9.66,0,0,0-17.61,0l-10.34,22.11,74.58,160.24-149.79.61-.08.15,188.1-.76Z"/><path class="cls-7" d="M393.12,583l63.42-135.52a9.66,9.66,0,0,1,17.62,0l64.24,137Z"/><path class="cls-8" d="M474.16,447.51a9.66,9.66,0,0,0-17.62,0l-8,17.19,56.26,122.92h35.17Z"/><path class="cls-9" d="M308.9,467.54a13.33,13.33,0,0,1,6.74,11.65v14.26a13,13,0,1,0,25.93,0V475a13.35,13.35,0,0,1,5.77-11l7.85-5-25.9-55.66a9.66,9.66,0,0,0-17.61,0l-24.36,52.1.4.22Z"/><path class="cls-9" d="M370.15,411.93a9.61,9.61,0,0,1,3.33,7.3v21.1a13,13,0,1,0,25.93,0V429.77a9.42,9.42,0,0,1,9.3-9.54,18.85,18.85,0,0,0,18.62-19.07V399L403,346.7a9.67,9.67,0,0,0-17.62,0l-26.14,55.87,1.91,1.67Z"/><path class="cls-10" d="M408.71,420.23a18.85,18.85,0,0,0,18.62-19.07V399L403,346.7a9.67,9.67,0,0,0-17.62,0l-8,17.19,26.16,58A9.09,9.09,0,0,1,408.71,420.23Z"/><path class="cls-9" d="M443.66,496.18a22,22,0,0,0,16.91-8,22,22,0,0,1,16.9-8h11.88l-15.19-32.66a9.66,9.66,0,0,0-17.62,0l-22.78,48.7Z"/><path class="cls-10" d="M477.47,480.17h11.88l-15.19-32.66a9.67,9.67,0,0,0-17.62,0l-7.62,16.3,11.19,24.91c.15-.17.31-.34.46-.52A22,22,0,0,1,477.47,480.17Z"/><path class="cls-10" d="M329.29,403.35a9.66,9.66,0,0,0-17.61,0l-9.24,19.75L337.59,503a13.39,13.39,0,0,0,4-9.56V475a13.35,13.35,0,0,1,5.77-11l7.85-5Z"/><path class="cls-11" d="M202.28,577.43H565.41v1.31C543.66,660.74,470.66,721,384,721c-87,0-160.18-60.66-181.67-143Z"/><path class="cls-12" d="M523.36,577.43v1.31C503.39,654,440.23,711,362.92,719.81a184.86,184.86,0,0,0,21,1.2c86.71,0,159.71-60.27,181.46-142.27v-1.31Z"/><path class="cls-13" d="M259,615.24c-4.8-7.5.39-20.62,6.93-34.93l1.26-2.88H202.28V578A193.62,193.62,0,0,0,272.2,683.22l.39-3.8S279.84,647.79,259,615.24Z"/><path class="cls-13" d="M502,635.9c-33.43-12.45-25.32,45.67-88.13,29.07-27.54-7.28-29.38,41.51-30.4,54l-.21,2.07H384c60.51,0,114.34-29.36,148.74-75l-.83-.29S535.4,648.36,502,635.9Z"/><path class="cls-13" d="M522.19,658.76l-.12.13Z"/><path class="cls-14" d="M502,635.91a31,31,0,0,0-3.48-1.07c-26.3,40.54-67.13,70.28-114.84,81.39-.08,1-.14,1.95-.21,2.72l-.21,2.06c57.45.22,115.79-27.82,149.46-75l-.83-.28S535.4,648.37,502,635.91Z"/><path class="cls-4" d="M567.06,392.76c0-13.32-10.54-24.12-23.54-24.12-.51,0-1,0-1.52.05a6.32,6.32,0,0,1-6.42-4.34,33.93,33.93,0,0,0-32-23.35c-18.7,0-33.86,15.53-33.86,34.68v0a23.56,23.56,0,0,0-20.84,14.6,6.31,6.31,0,0,0,5.84,8.69h106a6.27,6.27,0,0,0,6.31-6.17Z"/><path class="cls-4" d="M479.45,531A18.77,18.77,0,0,1,498,512c.39,0,.77,0,1.15,0a5,5,0,0,0,5.09-3.39,26.71,26.71,0,0,1,25.2-18.4c14.71,0,26.65,12.22,26.65,27.3h0A18.57,18.57,0,0,1,572.47,529a5,5,0,0,1-4.63,6.85h-83.4a4.94,4.94,0,0,1-5-4.85Z"/><path class="cls-15" d="M278.05,379.23a32.12,32.12,0,1,1-32.12-32.11A32.12,32.12,0,0,1,278.05,379.23Z"/></svg>