<svg id="Capa_1" data-name="Capa 1" xmlns="http://www.w3.org/2000/svg" xmlns:xlink="http://www.w3.org/1999/xlink" viewBox="0 0 768 900"><defs><style>.cls-1{fill:#fff;}.cls-2{fill:url(#Degradado_sin_nombre_11);}.cls-3{fill:#f9f9f9;}.cls-4{fill:#cbe6f7;}.cls-5{fill:#ab632e;}.cls-6{fill:#995929;}.cls-7{fill:#de9252;}.cls-8{fill:#d9833b;}.cls-9{fill:#f0f0f0;}.cls-10{fill:#e8e8e8;}.cls-11{fill:#89c8fd;}.cls-12{fill:#60b6ff;}.cls-13{fill:#baeb6c;}.cls-14{fill:#96d629;}.cls-15{fill:#ffe469;}</style><linearGradient id="Degradado_sin_nombre_11" y1="450" x2="768" y2="450" gradientUnits="userSpaceOnUse"><stop offset="0" stop-color="#3d6af2"/><stop offset="1" stop-color="#5596e4"/></linearGradient></defs><title>fondoIndexTablet</title><rect class="cls-1" x="0.09" y="0.32" width="768" height="900"/><path class="cls-2" d="M0,900V0H768C737.72,129.58,646.23,438.27,363,683,232.49,795.77,100.22,861.3,0,900Z"/><path class="cls-3" d="M214.79,172.42H194.06v-26.6h20.61v5.64H200.61v5h12.9v5.32h-12.9v5h14.18Z"/><path class="cls-3" d="M223.72,165.94c.28,1.71,1.83,2.35,3.53,2.35s2.58-.72,2.58-1.59c0-.68-.51-1.19-2-1.47l-4-.79c-3.69-.68-5.8-2.66-5.8-5.8,0-4.09,3.54-6.75,8.58-6.75s8.25,2.26,9,5.72l-5.8,1.15a3.09,3.09,0,0,0-3.33-2.34c-1.71,0-2.26.83-2.26,1.55,0,.55.23,1.11,1.5,1.38l4.69,1c3.77.79,5.52,3.05,5.52,6,0,4.41-3.81,6.71-9,6.71-4.69,0-8.7-1.71-9.37-5.8Z"/><path class="cls-3" d="M261.59,162.45c0,6.31-4.44,10.56-9.72,10.56a9,9,0,0,1-6.2-2.18v8.33h-6.35V152.49h6.35v1.59a9,9,0,0,1,6.2-2.19C257.15,151.89,261.59,156.18,261.59,162.45Zm-6.23,0c0-3.06-2-5.16-4.8-5.16a5.17,5.17,0,0,0,0,10.32C253.34,167.61,255.36,165.55,255.36,162.45Z"/><path class="cls-3" d="M284.42,164.08H269.81c.52,2.38,2.15,3.85,4.29,3.85a4.43,4.43,0,0,0,4.25-2.3l5.64,1.15c-1.71,4.21-5.32,6.23-9.89,6.23a10.56,10.56,0,0,1,0-21.12c5.64,0,10.16,4.05,10.28,10.56Zm-14.49-3.89h8.22a4,4,0,0,0-4-3.14A4.37,4.37,0,0,0,269.93,160.19Z"/><path class="cls-3" d="M301.61,164l5.84,1.27c-1,4.72-5.2,7.78-10.16,7.78-6,0-10.88-4.25-10.88-10.56s4.92-10.56,10.88-10.56a10.14,10.14,0,0,1,10.16,7.66l-6,1.43a4.1,4.1,0,0,0-4.2-3.53,5,5,0,0,0,0,10A4.27,4.27,0,0,0,301.61,164Z"/><path class="cls-3" d="M317.93,146.61a3.67,3.67,0,0,1-7.34,0,3.67,3.67,0,0,1,7.34,0Zm-6.87,25.81V152.49h6.36v19.93Z"/><path class="cls-3" d="M343.3,172.42H337v-1.59a9,9,0,0,1-6.19,2.18c-5.28,0-9.73-4.25-9.73-10.56s4.45-10.56,9.73-10.56a9,9,0,0,1,6.19,2.19v-1.59h6.35Zm-6.35-10a5,5,0,0,0-4.88-5.16c-2.78,0-4.81,2.1-4.81,5.16s2,5.16,4.81,5.16A4.94,4.94,0,0,0,337,162.45Z"/><path class="cls-3" d="M347.91,172.42V143.83h6.35v28.59Z"/><path class="cls-3" d="M366.05,146.61a3.51,3.51,0,0,1-3.69,3.54,3.47,3.47,0,0,1-3.65-3.54,3.58,3.58,0,0,1,3.65-3.61A3.62,3.62,0,0,1,366.05,146.61Zm-6.87,25.81V152.49h6.35v19.93Z"/><path class="cls-3" d="M375.3,165.94c.28,1.71,1.83,2.35,3.53,2.35s2.58-.72,2.58-1.59c0-.68-.51-1.19-2-1.47l-4.05-.79c-3.69-.68-5.8-2.66-5.8-5.8,0-4.09,3.54-6.75,8.58-6.75s8.26,2.26,9,5.72l-5.8,1.15c-.19-1.23-1.39-2.34-3.33-2.34-1.71,0-2.26.83-2.26,1.55,0,.55.23,1.11,1.5,1.38l4.69,1c3.77.79,5.52,3.05,5.52,6,0,4.41-3.81,6.71-9,6.71-4.69,0-8.7-1.71-9.37-5.8Z"/><path class="cls-3" d="M405.67,171.54a10.74,10.74,0,0,1-5.44,1.47c-5,0-7.94-2.7-7.94-7.94v-7.54h-3.61v-5h3.61v-5.88h6.35v5.88h5.88v5h-5.88v6.91c0,2.06,1,2.89,2.66,2.89a6.41,6.41,0,0,0,2.9-.79Z"/><path class="cls-3" d="M428.66,172.42h-6.35v-1.59a9,9,0,0,1-6.2,2.18c-5.28,0-9.72-4.25-9.72-10.56s4.44-10.56,9.72-10.56a9,9,0,0,1,6.2,2.19v-1.59h6.35Zm-6.35-10a5,5,0,0,0-4.89-5.16c-2.77,0-4.8,2.1-4.8,5.16s2,5.16,4.8,5.16A5,5,0,0,0,422.31,162.45Z"/><path class="cls-3" d="M438.11,165.94c.28,1.71,1.83,2.35,3.53,2.35s2.58-.72,2.58-1.59c0-.68-.51-1.19-2-1.47l-4.05-.79c-3.69-.68-5.8-2.66-5.8-5.8,0-4.09,3.54-6.75,8.58-6.75s8.25,2.26,9,5.72l-5.8,1.15a3.09,3.09,0,0,0-3.33-2.34c-1.71,0-2.26.83-2.26,1.55,0,.55.23,1.11,1.5,1.38l4.69,1c3.77.79,5.52,3.05,5.52,6,0,4.41-3.82,6.71-9.06,6.71-4.68,0-8.69-1.71-9.36-5.8Z"/><path class="cls-3" d="M482.45,164.08h-14.6c.51,2.38,2.14,3.85,4.28,3.85a4.43,4.43,0,0,0,4.25-2.3l5.64,1.15c-1.71,4.21-5.32,6.23-9.89,6.23a10.56,10.56,0,0,1,0-21.12c5.64,0,10.17,4.05,10.28,10.56ZM468,160.19h8.21a4,4,0,0,0-4-3.14A4.35,4.35,0,0,0,468,160.19Z"/><path class="cls-3" d="M506,160.19v12.23h-6.31V161.54c0-2.34-1.39-3.93-3.42-3.93-2.5,0-4.13,1.71-4.13,5.56v9.25h-6.35V152.49h6.35v1.9a8.23,8.23,0,0,1,6.12-2.5C502.86,151.89,506,155.19,506,160.19Z"/><path class="cls-3" d="M201.25,194.25a3.68,3.68,0,0,1-7.35,0,3.68,3.68,0,0,1,7.35,0Zm-6.87,25.81V200.13h6.35v19.93Z"/><path class="cls-3" d="M225.86,207.83v12.23h-6.31V209.18c0-2.34-1.39-3.93-3.41-3.93-2.51,0-4.13,1.71-4.13,5.56v9.25h-6.35V200.13H212V202a8.21,8.21,0,0,1,6.11-2.51C222.77,199.53,225.86,202.83,225.86,207.83Z"/><path class="cls-3" d="M250.71,218.07c0,6.16-4.68,9.53-11.15,9.53-4.57,0-8.06-1.59-10-4.8l5.28-2.86c1.5,1.78,2.62,2.46,4.68,2.46,2.9,0,5-1.71,5-4.84V217a8.89,8.89,0,0,1-6,1.91,9.69,9.69,0,0,1,0-19.38,8.89,8.89,0,0,1,6,1.91v-1.31h6.23Zm-6.23-8.93a4.71,4.71,0,1,0-4.64,4.57A4.49,4.49,0,0,0,244.48,209.14Z"/><path class="cls-3" d="M274.89,211.72H260.28c.52,2.38,2.15,3.85,4.29,3.85a4.43,4.43,0,0,0,4.25-2.3l5.64,1.15c-1.71,4.21-5.32,6.23-9.89,6.23a10.56,10.56,0,0,1,0-21.12c5.64,0,10.16,4.05,10.28,10.56Zm-14.49-3.89h8.22a4,4,0,0,0-4-3.14A4.39,4.39,0,0,0,260.4,207.83Z"/><path class="cls-3" d="M298.4,207.83v12.23h-6.32V209.18c0-2.34-1.39-3.93-3.41-3.93-2.5,0-4.13,1.71-4.13,5.56v9.25h-6.35V200.13h6.35V202a8.22,8.22,0,0,1,6.12-2.51C295.3,199.53,298.4,202.83,298.4,207.83Z"/><path class="cls-3" d="M309.91,194.25a3.67,3.67,0,0,1-7.34,0,3.67,3.67,0,0,1,7.34,0ZM303,220.06V200.13h6.36v19.93Z"/><path class="cls-3" d="M333.85,211.72H319.24c.52,2.38,2.14,3.85,4.29,3.85a4.44,4.44,0,0,0,4.25-2.3l5.63,1.15c-1.7,4.21-5.32,6.23-9.88,6.23a10.56,10.56,0,0,1,0-21.12c5.64,0,10.16,4.05,10.28,10.56Zm-14.49-3.89h8.22a4,4,0,0,0-4-3.14A4.38,4.38,0,0,0,319.36,207.83Z"/><path class="cls-3" d="M351.8,200l-.28,6.35h-1.15c-4.45,0-6.87,2.3-6.87,7.47v6.23h-6.35V200.13h6.35v3.81a7.7,7.7,0,0,1,6.87-4.09A5.45,5.45,0,0,1,351.8,200Z"/><path class="cls-3" d="M354.81,220.06V200.13h6.36v19.93Z"/><path class="cls-3" d="M387.05,220.06H380.7v-1.59a9,9,0,0,1-6.19,2.18c-5.28,0-9.73-4.24-9.73-10.56s4.45-10.56,9.73-10.56a9,9,0,0,1,6.19,2.19v-1.59h6.35Zm-6.35-10a5,5,0,0,0-4.88-5.16c-2.78,0-4.81,2.11-4.81,5.16s2,5.16,4.81,5.16A4.94,4.94,0,0,0,380.7,210.09Z"/><path class="cls-3" d="M410.75,226.81h-6.86l3.21-7.43-8.26-19.29h6.83l4.73,11.63,5-11.63h6.82Z"/><path class="cls-3" d="M454.58,218.07c0,6.16-4.68,9.53-11.15,9.53-4.57,0-8.06-1.59-10-4.8l5.28-2.86c1.51,1.78,2.62,2.46,4.69,2.46,2.9,0,5-1.71,5-4.84V217a8.89,8.89,0,0,1-6,1.91,9.69,9.69,0,0,1,0-19.38,8.89,8.89,0,0,1,6,1.91v-1.31h6.23Zm-6.23-8.93a4.71,4.71,0,1,0-4.65,4.57A4.5,4.5,0,0,0,448.35,209.14Z"/><path class="cls-3" d="M478.76,211.72H464.15c.52,2.38,2.14,3.85,4.29,3.85a4.44,4.44,0,0,0,4.25-2.3l5.63,1.15c-1.7,4.21-5.32,6.23-9.88,6.23a10.56,10.56,0,0,1,0-21.12c5.64,0,10.16,4.05,10.28,10.56Zm-14.49-3.89h8.22a4,4,0,0,0-4-3.14A4.38,4.38,0,0,0,464.27,207.83Z"/><path class="cls-3" d="M486.9,213.59c.28,1.7,1.83,2.34,3.53,2.34s2.58-.72,2.58-1.59c0-.67-.51-1.19-2-1.47l-4-.79c-3.69-.68-5.8-2.66-5.8-5.8,0-4.09,3.54-6.75,8.58-6.75s8.26,2.27,9.05,5.72L493,206.4c-.19-1.23-1.39-2.34-3.33-2.34-1.71,0-2.26.83-2.26,1.55,0,.55.23,1.11,1.5,1.39l4.69.95c3.77.79,5.52,3.06,5.52,6,0,4.41-3.81,6.71-9.05,6.71-4.69,0-8.7-1.7-9.37-5.79Z"/><path class="cls-3" d="M517.27,219.18a10.74,10.74,0,0,1-5.44,1.47c-5,0-7.94-2.7-7.94-7.94v-7.54h-3.61v-5h3.61v-5.88h6.35v5.88h5.88v5h-5.88v6.91c0,2.06,1,2.9,2.66,2.9a6.42,6.42,0,0,0,2.9-.8Z"/><path class="cls-3" d="M526.88,194.25a3.51,3.51,0,0,1-3.69,3.54,3.47,3.47,0,0,1-3.65-3.54,3.58,3.58,0,0,1,3.65-3.61A3.62,3.62,0,0,1,526.88,194.25ZM520,220.06V200.13h6.35v19.93Z"/><path class="cls-3" d="M551.93,210.09c0,6.32-5,10.52-10.92,10.52s-11-4.2-11-10.52,5-10.48,11-10.48S551.93,203.82,551.93,210.09Zm-6.11,0a4.87,4.87,0,1,0-4.81,5.16A5,5,0,0,0,545.82,210.09Z"/><path class="cls-3" d="M575.43,207.83v12.23h-6.31V209.18c0-2.34-1.39-3.93-3.41-3.93-2.5,0-4.13,1.71-4.13,5.56v9.25h-6.35V200.13h6.35V202a8.21,8.21,0,0,1,6.11-2.51C572.34,199.53,575.43,202.83,575.43,207.83Z"/><path class="cls-3" d="M215,267.7h-6.35v-1.59a9,9,0,0,1-6.19,2.19c-5.28,0-9.73-4.25-9.73-10.56s4.45-10.56,9.73-10.56a9,9,0,0,1,6.19,2.18v-1.59H215Zm-6.35-10a5,5,0,0,0-4.88-5.16c-2.78,0-4.8,2.1-4.8,5.16s2,5.16,4.8,5.16A5,5,0,0,0,208.67,257.74Z"/><path class="cls-3" d="M253.06,255.23V267.7h-6.32V256.58a3.37,3.37,0,0,0-3.33-3.69c-2.34,0-3.89,1.71-3.89,5v9.77h-6.35V256.58a3.39,3.39,0,0,0-3.38-3.69c-2.3,0-3.81,1.71-3.81,5v9.77h-6.35V247.77H226v1.83a7.55,7.55,0,0,1,5.88-2.42,7.39,7.39,0,0,1,6.51,3.37,8.6,8.6,0,0,1,7.06-3.37C249.68,247.18,253.06,250.39,253.06,255.23Z"/><path class="cls-3" d="M279.66,257.74c0,6.31-4.45,10.56-9.73,10.56a9,9,0,0,1-6.19-2.19v1.59h-6.35V239.12h6.35v10.24a9,9,0,0,1,6.19-2.18C275.21,247.18,279.66,251.46,279.66,257.74Zm-6.24,0c0-3.06-2-5.16-4.8-5.16a5.17,5.17,0,0,0,0,10.32C271.4,262.9,273.42,260.83,273.42,257.74Z"/><path class="cls-3" d="M290.14,241.9a3.67,3.67,0,0,1-7.34,0,3.67,3.67,0,0,1,7.34,0Zm-6.87,25.8V247.77h6.35V267.7Z"/><path class="cls-3" d="M314.08,259.36H299.47c.52,2.39,2.14,3.85,4.29,3.85a4.42,4.42,0,0,0,4.25-2.3l5.63,1.15c-1.7,4.21-5.32,6.24-9.88,6.24a10.56,10.56,0,0,1,0-21.12c5.63,0,10.16,4,10.28,10.56Zm-14.49-3.89h8.22a4,4,0,0,0-4-3.13A4.36,4.36,0,0,0,299.59,255.47Z"/><path class="cls-3" d="M337.58,255.47V267.7h-6.31V256.82c0-2.34-1.39-3.93-3.41-3.93-2.5,0-4.13,1.71-4.13,5.56v9.25h-6.35V247.77h6.35v1.91a8.2,8.2,0,0,1,6.11-2.5C334.49,247.18,337.58,250.47,337.58,255.47Z"/><path class="cls-3" d="M356.68,266.83a10.87,10.87,0,0,1-5.44,1.47c-5,0-7.94-2.7-7.94-7.94v-7.55h-3.61v-5h3.61V241.9h6.35v5.87h5.88v5h-5.88v6.91c0,2.07,1,2.9,2.66,2.9a6.42,6.42,0,0,0,2.9-.8Z"/><path class="cls-3" d="M379.67,267.7h-6.36v-1.59a9,9,0,0,1-6.19,2.19c-5.28,0-9.72-4.25-9.72-10.56s4.44-10.56,9.72-10.56a9,9,0,0,1,6.19,2.18v-1.59h6.36Zm-6.36-10a5,5,0,0,0-4.88-5.16c-2.78,0-4.8,2.1-4.8,5.16s2,5.16,4.8,5.16A5,5,0,0,0,373.31,257.74Z"/><path class="cls-3" d="M384.27,267.7V239.12h6.36V267.7Z"/><polygon class="cls-1" points="538.18 196.46 543.96 196.46 549.01 190.68 542.52 190.68 538.18 196.46"/><polygon class="cls-1" points="354.83 197.18 360.61 197.18 365.66 191.4 359.17 191.4 354.83 197.18"/><path class="cls-4" d="M323.15,528.58a20.71,20.71,0,0,0-20.46-21c-.45,0-.89,0-1.33,0a5.5,5.5,0,0,1-5.58-3.78A29.49,29.49,0,0,0,268,483.59c-16.25,0-29.43,13.5-29.43,30.15v0a20.47,20.47,0,0,0-18.12,12.69A5.48,5.48,0,0,0,225.5,534h92.17a5.44,5.44,0,0,0,5.48-5.36Z"/><path class="cls-5" d="M333,482.49l52.28-111.73a8.4,8.4,0,0,1,15.31,0L452.5,482.49,395.27,614.1Z"/><path class="cls-6" d="M400.55,370.78a8.4,8.4,0,0,0-15.31,0l-7,14.95,59.56,132,14.69-35.22Z"/><path class="cls-7" d="M246.7,579.2,321.14,420a8.4,8.4,0,0,1,15.31,0l73.77,158.51Z"/><path class="cls-8" d="M336.45,420a8.4,8.4,0,0,0-15.31,0l-9,19.22L377,578.54l-130.22.53-.07.13,163.52-.66Z"/><path class="cls-7" d="M391.94,576.21,447.08,458.4a8.4,8.4,0,0,1,15.31,0l55.85,119.12Z"/><path class="cls-8" d="M462.39,458.42a8.4,8.4,0,0,0-15.31,0l-7,14.94L489,580.2h30.58Z"/><path class="cls-9" d="M318.73,475.83A11.6,11.6,0,0,1,324.58,486v12.4a11.27,11.27,0,1,0,22.54,0v-16a11.64,11.64,0,0,1,5-9.6l6.83-4.32L336.45,420a8.4,8.4,0,0,0-15.31,0L300,465.3l.35.2Z"/><path class="cls-9" d="M372,427.48a8.37,8.37,0,0,1,2.89,6.36v18.33a11.27,11.27,0,1,0,22.54,0V443a8.2,8.2,0,0,1,8.1-8.29,16.39,16.39,0,0,0,16.18-16.58v-1.92l-21.13-45.43a8.4,8.4,0,0,0-15.31,0l-22.72,48.57,1.65,1.46Z"/><path class="cls-10" d="M405.5,434.71a16.39,16.39,0,0,0,16.18-16.58v-1.92l-21.13-45.43a8.4,8.4,0,0,0-15.31,0l-7,14.95L401,436.11A7.9,7.9,0,0,1,405.5,434.71Z"/><path class="cls-9" d="M435.88,500.73a19.07,19.07,0,0,0,14.69-7,19.13,19.13,0,0,1,14.7-7H475.6l-13.21-28.39a8.4,8.4,0,0,0-15.31,0l-19.81,42.33Z"/><path class="cls-10" d="M465.27,486.81H475.6l-13.21-28.39a8.4,8.4,0,0,0-15.31,0l-6.63,14.16,9.73,21.66c.13-.15.27-.3.39-.45A19.13,19.13,0,0,1,465.27,486.81Z"/><path class="cls-10" d="M336.45,420a8.4,8.4,0,0,0-15.31,0l-8,17.17,30.56,69.49a11.64,11.64,0,0,0,3.45-8.31v-16a11.63,11.63,0,0,1,5-9.6l6.83-4.32Z"/><path class="cls-11" d="M226,571.37H541.72v1.13C522.81,643.79,459.35,696.19,384,696.19c-75.62,0-139.25-52.74-157.94-124.37Z"/><path class="cls-12" d="M505.16,571.37v1.13c-17.36,65.44-72.27,115-139.47,122.64A160,160,0,0,0,384,696.19c75.38,0,138.84-52.4,157.75-123.69v-1.13Z"/><path class="cls-13" d="M275.36,604.24c-4.18-6.53.34-17.93,6-30.37l1.09-2.5H226v.46a168.39,168.39,0,0,0,60.79,91.5l.34-3.31S293.46,632.53,275.36,604.24Z"/><path class="cls-13" d="M486.57,622.2c-29.06-10.83-22,39.7-76.62,25.26-23.94-6.33-25.54,36.1-26.42,46.92l-.19,1.8H384c52.6,0,99.4-25.53,129.31-65.18l-.73-.24S515.63,633,486.57,622.2Z"/><path class="cls-13" d="M504.15,642.07a.52.52,0,0,0-.1.11A.52.52,0,0,1,504.15,642.07Z"/><path class="cls-14" d="M486.57,622.21a27.09,27.09,0,0,0-3-.94c-22.87,35.25-58.36,61.1-99.84,70.76-.07.9-.13,1.69-.18,2.36l-.19,1.8C433.29,696.38,484,672,513.28,631l-.73-.24S515.63,633,486.57,622.21Z"/><path class="cls-4" d="M543.15,410.82a20.72,20.72,0,0,0-20.46-21c-.44,0-.89,0-1.32,0a5.51,5.51,0,0,1-5.59-3.78A29.48,29.48,0,0,0,488,365.83c-16.25,0-29.43,13.5-29.43,30.15v0a20.45,20.45,0,0,0-18.11,12.69,5.47,5.47,0,0,0,5.07,7.55h92.17a5.45,5.45,0,0,0,5.48-5.37Z"/><path class="cls-4" d="M467,531a16.31,16.31,0,0,1,16.11-16.5c.34,0,.67,0,1,0a4.35,4.35,0,0,0,4.43-2.94,23.22,23.22,0,0,1,21.9-16c12.79,0,23.17,10.62,23.17,23.73h0a16.13,16.13,0,0,1,14.25,10,4.32,4.32,0,0,1-4,6H471.32A4.3,4.3,0,0,1,467,531Z"/><path class="cls-15" d="M291.91,399.06A27.92,27.92,0,1,1,264,371.14,27.93,27.93,0,0,1,291.91,399.06Z"/></svg>