<svg id="Capa_1" data-name="Capa 1" xmlns="http://www.w3.org/2000/svg" xmlns:xlink="http://www.w3.org/1999/xlink" viewBox="0 0 425.2 736"><defs><style>.cls-1{fill:#fff;}.cls-2{fill:url(#Degradado_sin_nombre_29);}.cls-3{fill:#f9f9f9;}.cls-4{fill:#cbe6f7;}.cls-5{fill:#ab632e;}.cls-6{fill:#995929;}.cls-7{fill:#de9252;}.cls-8{fill:#d9833b;}.cls-9{fill:#f0f0f0;}.cls-10{fill:#e8e8e8;}.cls-11{fill:#89c8fd;}.cls-12{fill:#60b6ff;}.cls-13{fill:#baeb6c;}.cls-14{fill:#96d629;}.cls-15{fill:#ffe469;}</style><linearGradient id="Degradado_sin_nombre_29" y1="358.03" x2="424" y2="358.03" gradientUnits="userSpaceOnUse"><stop offset="0" stop-color="#4e88dd"/><stop offset="1" stop-color="#8cf2ff"/></linearGradient></defs><title>indexPageMobile</title><rect class="cls-1" x="0.76" width="424.44" height="736"/><path class="cls-2" d="M0,716.07V0H424c-16.72,103.09-67.23,348.7-223.59,543.41C128.35,633.14,55.33,685.28,0,716.07Z"/><path class="cls-3" d="M79.44,140.2H63.09v-21H79.34v4.45H68.26v3.94H78.44v4.2H68.26v3.95H79.44Z"/><path class="cls-3" d="M86.49,135.1c.21,1.34,1.44,1.85,2.78,1.85s2-.57,2-1.26c0-.53-.41-.94-1.57-1.16l-3.19-.62c-2.91-.53-4.57-2.1-4.57-4.57,0-3.23,2.78-5.33,6.76-5.33s6.51,1.79,7.14,4.51l-4.57.91a2.45,2.45,0,0,0-2.63-1.85c-1.35,0-1.79.66-1.79,1.22s.19.88,1.19,1.1l3.7.75c3,.63,4.35,2.41,4.35,4.73,0,3.48-3,5.29-7.14,5.29-3.69,0-6.86-1.34-7.39-4.57Z"/><path class="cls-3" d="M116.36,132.34c0,5-3.51,8.33-7.67,8.33A7.06,7.06,0,0,1,103.8,139v6.57h-5v-21h5v1.26a7.07,7.07,0,0,1,4.89-1.73C112.85,124,116.36,127.4,116.36,132.34Zm-4.92,0a3.78,3.78,0,0,0-3.79-4.07,4.08,4.08,0,0,0,0,8.14A3.76,3.76,0,0,0,111.44,132.34Z"/><path class="cls-3" d="M134.37,133.63H122.84a3.63,3.63,0,0,0,6.73,1.22l4.45.91c-1.35,3.31-4.19,4.91-7.8,4.91a8.33,8.33,0,0,1,0-16.66c4.44,0,8,3.2,8.11,8.33Zm-11.43-3.07h6.48a3.14,3.14,0,0,0-3.16-2.48A3.45,3.45,0,0,0,122.94,130.56Z"/><path class="cls-3" d="M147.93,133.53l4.6,1a7.89,7.89,0,0,1-8,6.14,8.33,8.33,0,1,1,0-16.66,8,8,0,0,1,8,6l-4.7,1.12a3.24,3.24,0,0,0-3.32-2.78,4,4,0,0,0,0,7.89A3.39,3.39,0,0,0,147.93,133.53Z"/><path class="cls-3" d="M160.8,119.85a2.77,2.77,0,0,1-2.92,2.79,2.74,2.74,0,0,1-2.88-2.79,2.9,2.9,0,0,1,5.8,0Zm-5.42,20.35V124.48h5V140.2Z"/><path class="cls-3" d="M180.81,140.2h-5V139a7.08,7.08,0,0,1-4.89,1.72c-4.16,0-7.67-3.35-7.67-8.33s3.51-8.33,7.67-8.33a7.08,7.08,0,0,1,4.89,1.73v-1.26h5Zm-5-7.86a3.93,3.93,0,0,0-3.86-4.07,4.08,4.08,0,0,0,0,8.14A3.91,3.91,0,0,0,175.8,132.34Z"/><path class="cls-3" d="M184.44,140.2V117.66h5V140.2Z"/><path class="cls-3" d="M198.75,119.85a2.9,2.9,0,0,1-5.79,0,2.9,2.9,0,0,1,5.79,0Zm-5.42,20.35V124.48h5V140.2Z"/><path class="cls-3" d="M206.05,135.1c.22,1.34,1.44,1.85,2.78,1.85s2-.57,2-1.26c0-.53-.41-.94-1.57-1.16l-3.19-.62c-2.91-.53-4.57-2.1-4.57-4.57,0-3.23,2.79-5.33,6.76-5.33s6.51,1.79,7.14,4.51l-4.57.91a2.45,2.45,0,0,0-2.63-1.85c-1.35,0-1.79.66-1.79,1.22s.19.88,1.19,1.1l3.7.75c3,.63,4.35,2.41,4.35,4.73,0,3.48-3,5.29-7.14,5.29-3.69,0-6.85-1.34-7.39-4.57Z"/><path class="cls-3" d="M230,139.51a8.49,8.49,0,0,1-4.29,1.16c-3.91,0-6.26-2.13-6.26-6.26v-5.95H216.6v-4h2.85v-4.63h5v4.63h4.64v4h-4.64v5.45c0,1.63.78,2.28,2.1,2.28a5.13,5.13,0,0,0,2.28-.62Z"/><path class="cls-3" d="M248.13,140.2h-5V139a7.05,7.05,0,0,1-4.88,1.72c-4.16,0-7.67-3.35-7.67-8.33s3.51-8.33,7.67-8.33a7.06,7.06,0,0,1,4.88,1.73v-1.26h5Zm-5-7.86a3.92,3.92,0,0,0-3.85-4.07,4.08,4.08,0,0,0,0,8.14A3.9,3.9,0,0,0,243.12,132.34Z"/><path class="cls-3" d="M255.59,135.1c.22,1.34,1.44,1.85,2.79,1.85s2-.57,2-1.26c0-.53-.41-.94-1.56-1.16l-3.2-.62c-2.91-.53-4.57-2.1-4.57-4.57,0-3.23,2.79-5.33,6.76-5.33s6.52,1.79,7.14,4.51l-4.57.91a2.44,2.44,0,0,0-2.63-1.85c-1.35,0-1.78.66-1.78,1.22s.18.88,1.19,1.1l3.69.75c3,.63,4.35,2.41,4.35,4.73,0,3.48-3,5.29-7.14,5.29-3.69,0-6.85-1.34-7.39-4.57Z"/><path class="cls-3" d="M290.57,133.63H279a3.64,3.64,0,0,0,6.74,1.22l4.44.91c-1.34,3.31-4.19,4.91-7.79,4.91a8.33,8.33,0,0,1,0-16.66c4.44,0,8,3.2,8.11,8.33Zm-11.43-3.07h6.48a3.14,3.14,0,0,0-3.16-2.48A3.45,3.45,0,0,0,279.14,130.56Z"/><path class="cls-3" d="M309.11,130.56v9.64h-5v-8.58c0-1.84-1.1-3.1-2.7-3.1-2,0-3.25,1.35-3.25,4.39v7.29h-5V124.48h5V126a6.46,6.46,0,0,1,4.82-2C306.66,124,309.11,126.61,309.11,130.56Z"/><path class="cls-3" d="M68.76,157.43a2.9,2.9,0,0,1-5.79,0,2.9,2.9,0,0,1,5.79,0Zm-5.42,20.35V162.06h5v15.72Z"/><path class="cls-3" d="M88.17,168.14v9.64h-5V169.2c0-1.85-1.1-3.1-2.7-3.1-2,0-3.25,1.35-3.25,4.39v7.29h-5V162.06h5v1.51a6.46,6.46,0,0,1,4.82-2C85.73,161.59,88.17,164.19,88.17,168.14Z"/><path class="cls-3" d="M107.78,176.22c0,4.85-3.7,7.51-8.8,7.51-3.6,0-6.36-1.25-7.89-3.79l4.16-2.25a4.27,4.27,0,0,0,3.7,1.94,3.59,3.59,0,0,0,3.91-3.82v-.44a7,7,0,0,1-4.73,1.5,7.64,7.64,0,0,1,0-15.28,7,7,0,0,1,4.73,1.51v-1h4.92Zm-4.92-7.05a3.71,3.71,0,1,0-3.66,3.6A3.55,3.55,0,0,0,102.86,169.17Z"/><path class="cls-3" d="M126.85,171.21H115.33a3.63,3.63,0,0,0,6.73,1.22l4.44.9c-1.34,3.32-4.19,4.92-7.79,4.92a8.33,8.33,0,0,1,0-16.66c4.45,0,8,3.2,8.11,8.33Zm-11.43-3.07h6.48a3.14,3.14,0,0,0-3.16-2.48A3.45,3.45,0,0,0,115.42,168.14Z"/><path class="cls-3" d="M145.39,168.14v9.64h-5V169.2c0-1.85-1.1-3.1-2.69-3.1-2,0-3.26,1.35-3.26,4.39v7.29h-5V162.06h5v1.51a6.46,6.46,0,0,1,4.82-2C143,161.59,145.39,164.19,145.39,168.14Z"/><path class="cls-3" d="M154.47,157.43a2.9,2.9,0,0,1-5.79,0,2.9,2.9,0,0,1,5.79,0Zm-5.42,20.35V162.06h5v15.72Z"/><path class="cls-3" d="M173.35,171.21H161.83a3.63,3.63,0,0,0,6.73,1.22l4.45.9c-1.35,3.32-4.2,4.92-7.8,4.92a8.33,8.33,0,0,1,0-16.66c4.45,0,8,3.2,8.11,8.33Zm-11.43-3.07h6.48a3.14,3.14,0,0,0-3.16-2.48A3.45,3.45,0,0,0,161.92,168.14Z"/><path class="cls-3" d="M187.51,162l-.22,5h-.91c-3.51,0-5.42,1.81-5.42,5.88v4.92h-5V162.06h5v3a6.08,6.08,0,0,1,5.42-3.23A4.08,4.08,0,0,1,187.51,162Z"/><path class="cls-3" d="M189.89,177.78V162.06h5v15.72Z"/><path class="cls-3" d="M215.31,177.78h-5v-1.25a7.08,7.08,0,0,1-4.88,1.72c-4.16,0-7.67-3.35-7.67-8.33s3.51-8.33,7.67-8.33a7.08,7.08,0,0,1,4.88,1.72v-1.25h5Zm-5-7.86a3.92,3.92,0,0,0-3.85-4.07,4.08,4.08,0,0,0,0,8.14A3.9,3.9,0,0,0,210.3,169.92Z"/><path class="cls-3" d="M234,183.1h-5.42l2.54-5.85L224.62,162H230l3.73,9.18,4-9.18h5.38Z"/><path class="cls-3" d="M268.58,176.22c0,4.85-3.69,7.51-8.8,7.51-3.6,0-6.35-1.25-7.89-3.79l4.17-2.25c1.19,1.41,2.06,1.94,3.69,1.94a3.6,3.6,0,0,0,3.92-3.82v-.44a7,7,0,0,1-4.73,1.5,7.64,7.64,0,0,1,0-15.28,7,7,0,0,1,4.73,1.51v-1h4.91Zm-4.91-7.05A3.55,3.55,0,0,0,260,165.6a3.59,3.59,0,1,0,0,7.17A3.58,3.58,0,0,0,263.67,169.17Z"/><path class="cls-3" d="M287.65,171.21H276.13a3.63,3.63,0,0,0,6.73,1.22l4.45.9c-1.35,3.32-4.2,4.92-7.8,4.92a8.33,8.33,0,0,1,0-16.66c4.45,0,8,3.2,8.11,8.33Zm-11.43-3.07h6.49a3.16,3.16,0,0,0-3.17-2.48A3.45,3.45,0,0,0,276.22,168.14Z"/><path class="cls-3" d="M294.07,172.68c.22,1.34,1.44,1.84,2.79,1.84s2-.56,2-1.25c0-.53-.41-.94-1.57-1.16l-3.19-.62c-2.91-.54-4.57-2.1-4.57-4.57,0-3.23,2.78-5.33,6.76-5.33s6.51,1.79,7.14,4.51l-4.57.91a2.45,2.45,0,0,0-2.63-1.85c-1.35,0-1.79.66-1.79,1.22s.19.88,1.19,1.1l3.7.75c3,.63,4.35,2.41,4.35,4.73,0,3.47-3,5.29-7.14,5.29-3.7,0-6.86-1.35-7.39-4.57Z"/><path class="cls-3" d="M318,177.09a8.49,8.49,0,0,1-4.29,1.16c-3.91,0-6.26-2.13-6.26-6.26v-6h-2.85v-4h2.85v-4.63h5v4.63h4.63v4h-4.63v5.45c0,1.63.78,2.28,2.1,2.28a5.2,5.2,0,0,0,2.28-.62Z"/><path class="cls-3" d="M325.61,157.43a2.9,2.9,0,0,1-5.79,0,2.9,2.9,0,0,1,5.79,0Zm-5.42,20.35V162.06h5v15.72Z"/><path class="cls-3" d="M345.37,169.92c0,5-3.95,8.3-8.61,8.3s-8.71-3.32-8.71-8.3,3.95-8.26,8.71-8.26S345.37,165,345.37,169.92Zm-4.82,0a3.85,3.85,0,1,0-3.79,4.07A3.91,3.91,0,0,0,340.55,169.92Z"/><path class="cls-3" d="M363.91,168.14v9.64h-5V169.2c0-1.85-1.1-3.1-2.69-3.1-2,0-3.26,1.35-3.26,4.39v7.29h-5V162.06h5v1.51a6.46,6.46,0,0,1,4.82-2C361.46,161.59,363.91,164.19,363.91,168.14Z"/><path class="cls-3" d="M79.62,215.36h-5v-1.25a7.13,7.13,0,0,1-4.89,1.72c-4.16,0-7.67-3.35-7.67-8.33s3.51-8.33,7.67-8.33a7.13,7.13,0,0,1,4.89,1.72v-1.25h5Zm-5-7.86a3.93,3.93,0,0,0-3.86-4.07,4.08,4.08,0,0,0,0,8.14A3.91,3.91,0,0,0,74.62,207.5Z"/><path class="cls-3" d="M109.62,205.53v9.83h-5v-8.77a2.67,2.67,0,0,0-2.63-2.91c-1.85,0-3.07,1.35-3.07,4v7.7h-5v-8.77a2.67,2.67,0,0,0-2.66-2.91c-1.82,0-3,1.35-3,4v7.7h-5V199.64h5v1.44a5.94,5.94,0,0,1,4.63-1.91A5.83,5.83,0,0,1,98,201.83a6.76,6.76,0,0,1,5.57-2.66A6,6,0,0,1,109.62,205.53Z"/><path class="cls-3" d="M130.61,207.5c0,5-3.51,8.33-7.67,8.33a7.11,7.11,0,0,1-4.89-1.72v1.25h-5V192.82h5v8.07a7.11,7.11,0,0,1,4.89-1.72C127.1,199.17,130.61,202.55,130.61,207.5Zm-4.92,0a3.78,3.78,0,0,0-3.79-4.07,4.08,4.08,0,0,0,0,8.14A3.77,3.77,0,0,0,125.69,207.5Z"/><path class="cls-3" d="M138.88,195a2.77,2.77,0,0,1-2.92,2.78,2.74,2.74,0,0,1-2.88-2.78,2.82,2.82,0,0,1,2.88-2.85A2.86,2.86,0,0,1,138.88,195Zm-5.42,20.35V199.64h5v15.72Z"/><path class="cls-3" d="M157.76,208.78H146.23A3.64,3.64,0,0,0,153,210l4.44.9c-1.34,3.32-4.19,4.92-7.79,4.92a8.33,8.33,0,0,1,0-16.66c4.44,0,8,3.2,8.11,8.33Zm-11.43-3.06h6.48a3.14,3.14,0,0,0-3.16-2.48A3.45,3.45,0,0,0,146.33,205.72Z"/><path class="cls-3" d="M176.3,205.72v9.64h-5v-8.58c0-1.85-1.1-3.1-2.7-3.1-2,0-3.25,1.35-3.25,4.38v7.3h-5V199.64h5v1.5a6.49,6.49,0,0,1,4.82-2C173.85,199.17,176.3,201.77,176.3,205.72Z"/><path class="cls-3" d="M191.36,214.67a8.52,8.52,0,0,1-4.29,1.16c-3.91,0-6.26-2.13-6.26-6.26v-5.95H178v-4h2.85V195h5v4.63h4.63v4h-4.63v5.45c0,1.62.78,2.28,2.1,2.28a5.2,5.2,0,0,0,2.28-.62Z"/><path class="cls-3" d="M209.49,215.36h-5v-1.25a7.1,7.1,0,0,1-4.88,1.72c-4.17,0-7.67-3.35-7.67-8.33s3.5-8.33,7.67-8.33a7.1,7.1,0,0,1,4.88,1.72v-1.25h5Zm-5-7.86a3.92,3.92,0,0,0-3.85-4.07,4.08,4.08,0,0,0,0,8.14A3.9,3.9,0,0,0,204.48,207.5Z"/><path class="cls-3" d="M213.13,215.36V192.82h5v22.54Z"/><polygon class="cls-1" points="334.53 159.16 339.08 159.16 343.07 154.61 337.94 154.61 334.53 159.16"/><polygon class="cls-1" points="189.9 159.73 194.46 159.73 198.44 155.18 193.32 155.18 189.9 159.73"/><path class="cls-4" d="M158.39,437.43a18.55,18.55,0,0,0-18.32-18.78c-.4,0-.8,0-1.19,0a4.94,4.94,0,0,1-5-3.38A26.42,26.42,0,0,0,109,397.13c-14.56,0-26.36,12.09-26.36,27h0a18.33,18.33,0,0,0-16.23,11.37,4.9,4.9,0,0,0,4.55,6.76h82.56a4.87,4.87,0,0,0,4.9-4.8Z"/><path class="cls-5" d="M167.18,396.14,214,296.06a7.53,7.53,0,0,1,13.72,0l46.53,100.06L223,514Z"/><path class="cls-6" d="M227.73,296.08a7.53,7.53,0,0,0-13.72,0l-6.26,13.39L261.1,427.69l13.16-31.55Z"/><path class="cls-7" d="M89.92,482.77l66.67-142.59a7.53,7.53,0,0,1,13.72,0l66.08,142Z"/><path class="cls-8" d="M170.31,340.2a7.53,7.53,0,0,0-13.72,0l-8,17.22,58.07,124.77L90,482.65l-.06.12,146.47-.6Z"/><path class="cls-7" d="M220,480.09,269.4,374.56a7.53,7.53,0,0,1,13.72,0l50,106.7Z"/><path class="cls-8" d="M283.12,374.58a7.53,7.53,0,0,0-13.72,0L263.14,388l43.8,95.71h27.39Z"/><path class="cls-9" d="M154.43,390.18a10.37,10.37,0,0,1,5.25,9.07v11.11a10.1,10.1,0,1,0,20.19,0V396a10.41,10.41,0,0,1,4.49-8.6l6.12-3.87L170.31,340.2a7.53,7.53,0,0,0-13.72,0l-19,40.57.31.17Z"/><path class="cls-9" d="M202.12,346.87a7.49,7.49,0,0,1,2.6,5.69V369a10.1,10.1,0,1,0,20.19,0v-8.22a7.34,7.34,0,0,1,7.24-7.43,14.68,14.68,0,0,0,14.5-14.85v-1.72l-18.92-40.69a7.53,7.53,0,0,0-13.72,0l-20.35,43.51,1.48,1.31Z"/><path class="cls-10" d="M232.15,353.34a14.68,14.68,0,0,0,14.5-14.85v-1.72l-18.92-40.69a7.53,7.53,0,0,0-13.72,0l-6.26,13.39,20.37,45.15A7.11,7.11,0,0,1,232.15,353.34Z"/><path class="cls-9" d="M259.37,412.48a17.11,17.11,0,0,0,13.16-6.23A17.11,17.11,0,0,1,285.7,400H295l-11.83-25.44a7.53,7.53,0,0,0-13.72,0l-17.74,37.92Z"/><path class="cls-10" d="M285.7,400H295l-11.83-25.44a7.53,7.53,0,0,0-13.72,0l-5.94,12.69,8.72,19.4.35-.4A17.11,17.11,0,0,1,285.7,400Z"/><path class="cls-10" d="M170.31,340.2a7.53,7.53,0,0,0-13.72,0l-7.19,15.38,27.37,62.24a10.41,10.41,0,0,0,3.1-7.44V396a10.41,10.41,0,0,1,4.49-8.6l6.12-3.87Z"/><path class="cls-11" d="M71.4,475.75H354.17v1c-16.93,63.85-73.78,110.79-141.3,110.79-67.74,0-124.73-47.24-141.47-111.4Z"/><path class="cls-12" d="M321.43,475.75v1c-15.55,58.61-64.74,103-124.93,109.85a142.65,142.65,0,0,0,16.37.94c67.52,0,124.37-46.94,141.3-110.79v-1Z"/><path class="cls-13" d="M115.58,505.2c-3.74-5.85.31-16.06,5.4-27.21l1-2.24H71.4v.41a150.84,150.84,0,0,0,54.45,82l.31-3S131.8,530.54,115.58,505.2Z"/><path class="cls-13" d="M304.77,521.28c-26-9.7-19.72,35.57-68.63,22.63-21.44-5.67-22.87,32.33-23.66,42l-.17,1.61h.56c47.12,0,89-22.86,115.82-58.38L328,529S330.81,531,304.77,521.28Z"/><path class="cls-13" d="M320.52,539.08l-.09.1Z"/><path class="cls-14" d="M304.77,521.29a26.55,26.55,0,0,0-2.7-.84c-20.49,31.57-52.28,54.73-89.43,63.39-.06.8-.11,1.51-.16,2.11l-.17,1.61c44.74.17,90.17-21.67,116.38-58.37L328,529S330.81,531,304.77,521.29Z"/><path class="cls-4" d="M355.46,332a18.56,18.56,0,0,0-18.33-18.78c-.4,0-.8,0-1.19,0a4.92,4.92,0,0,1-5-3.37A26.41,26.41,0,0,0,306,291.64c-14.56,0-26.36,12.1-26.36,27v0A18.34,18.34,0,0,0,263.44,330,4.91,4.91,0,0,0,268,336.8h82.56a4.88,4.88,0,0,0,4.91-4.8Z"/><path class="cls-4" d="M287.24,439.56a14.61,14.61,0,0,1,14.43-14.78c.3,0,.6,0,.89,0a3.92,3.92,0,0,0,4-2.64,20.79,20.79,0,0,1,19.62-14.33A21,21,0,0,1,346.9,429.1h0a14.45,14.45,0,0,1,12.77,8.94,3.87,3.87,0,0,1-3.6,5.33H291.12a3.84,3.84,0,0,1-3.88-3.78Z"/><path class="cls-15" d="M130.41,321.41a25,25,0,1,1-25-25A25,25,0,0,1,130.41,321.41Z"/></svg>