<svg id="Capa_1" data-name="Capa 1" xmlns="http://www.w3.org/2000/svg" xmlns:xlink="http://www.w3.org/1999/xlink" viewBox="0 0 425.2 736"><defs><style>.cls-1{fill:#fff;}.cls-2{fill:url(#Degradado_sin_nombre_29);}.cls-3{fill:#f9f9f9;}.cls-4{fill:#cbe6f7;}.cls-5{fill:#ab632e;}.cls-6{fill:#995929;}.cls-7{fill:#de9252;}.cls-8{fill:#d9833b;}.cls-9{fill:#f0f0f0;}.cls-10{fill:#e8e8e8;}.cls-11{fill:#89c8fd;}.cls-12{fill:#60b6ff;}.cls-13{fill:#baeb6c;}.cls-14{fill:#96d629;}.cls-15{fill:#ffe469;}</style><linearGradient id="Degradado_sin_nombre_29" y1="358.03" x2="424" y2="358.03" gradientUnits="userSpaceOnUse"><stop offset="0" stop-color="#4e88dd"/><stop offset="1" stop-color="#8cf2ff"/></linearGradient></defs><title>indexPageMobile</title><rect class="cls-1" x="0.76" width="424.44" height="736"/><path class="cls-2" d="M0,716.07V0H424c-16.72,103.09-67.23,348.7-223.59,543.41C128.35,633.14,55.33,685.28,0,716.07Z"/><path class="cls-3" d="M83.81,144.06H68V123.77H83.72v4.3H73v3.81h9.84v4.06H73v3.82H83.81Z"/><path class="cls-3" d="M90.63,139.12c.21,1.31,1.39,1.79,2.69,1.79s2-.54,2-1.21c0-.52-.39-.91-1.51-1.12L90.69,138c-2.82-.51-4.43-2-4.43-4.42,0-3.12,2.7-5.15,6.55-5.15s6.3,1.73,6.9,4.36l-4.42.88a2.36,2.36,0,0,0-2.54-1.79c-1.31,0-1.73.64-1.73,1.19s.18.84,1.15,1.06l3.57.72c2.88.61,4.21,2.33,4.21,4.58,0,3.36-2.9,5.11-6.9,5.11-3.57,0-6.63-1.3-7.15-4.42Z"/><path class="cls-3" d="M119.52,136.46c0,4.81-3.39,8-7.42,8a6.83,6.83,0,0,1-4.72-1.66v6.36h-4.85V128.86h4.85v1.21a6.83,6.83,0,0,1,4.72-1.67C116.13,128.4,119.52,131.67,119.52,136.46Zm-4.75,0a3.66,3.66,0,0,0-3.67-3.94,3.95,3.95,0,0,0,0,7.88A3.65,3.65,0,0,0,114.77,136.46Z"/><path class="cls-3" d="M136.94,137.7H125.79a3.52,3.52,0,0,0,6.52,1.18l4.3.88c-1.31,3.21-4.06,4.75-7.55,4.75a8.06,8.06,0,0,1,0-16.11c4.31,0,7.76,3.09,7.85,8.06Zm-11.06-3h6.27a3,3,0,0,0-3.06-2.39A3.34,3.34,0,0,0,125.88,134.73Z"/><path class="cls-3" d="M150.06,137.61l4.45,1a7.64,7.64,0,0,1-7.76,5.93,8.06,8.06,0,1,1,0-16.11,7.74,7.74,0,0,1,7.76,5.85L150,135.34a3.13,3.13,0,0,0-3.21-2.7,3.82,3.82,0,0,0,0,7.63A3.26,3.26,0,0,0,150.06,137.61Z"/><path class="cls-3" d="M162.51,124.37a2.68,2.68,0,0,1-2.82,2.7,2.65,2.65,0,0,1-2.79-2.7,2.73,2.73,0,0,1,2.79-2.75A2.76,2.76,0,0,1,162.51,124.37Zm-5.24,19.69v-15.2h4.84v15.2Z"/><path class="cls-3" d="M181.86,144.06H177v-1.21a6.83,6.83,0,0,1-4.72,1.66c-4,0-7.42-3.24-7.42-8s3.39-8.06,7.42-8.06a6.83,6.83,0,0,1,4.72,1.67v-1.21h4.85Zm-4.85-7.6a3.79,3.79,0,0,0-3.72-3.94,3.95,3.95,0,0,0,0,7.88A3.77,3.77,0,0,0,177,136.46Z"/><path class="cls-3" d="M185.37,144.06V122.25h4.85v21.81Z"/><path class="cls-3" d="M199.22,124.37a2.81,2.81,0,0,1-5.61,0,2.81,2.81,0,0,1,5.61,0ZM194,144.06v-15.2h4.84v15.2Z"/><path class="cls-3" d="M206.27,139.12c.22,1.31,1.4,1.79,2.7,1.79s2-.54,2-1.21c0-.52-.4-.91-1.52-1.12l-3.08-.61c-2.82-.51-4.43-2-4.43-4.42,0-3.12,2.7-5.15,6.55-5.15s6.29,1.73,6.9,4.36l-4.42.88a2.36,2.36,0,0,0-2.55-1.79c-1.3,0-1.72.64-1.72,1.19s.18.84,1.15,1.06l3.57.72c2.88.61,4.21,2.33,4.21,4.58,0,3.36-2.9,5.11-6.9,5.11-3.58,0-6.64-1.3-7.15-4.42Z"/><path class="cls-3" d="M229.45,143.39a8.26,8.26,0,0,1-4.15,1.12c-3.79,0-6.06-2.06-6.06-6V132.7h-2.76v-3.84h2.76v-4.49h4.85v4.49h4.48v3.84h-4.48V138c0,1.58.75,2.21,2,2.21a5,5,0,0,0,2.22-.6Z"/><path class="cls-3" d="M247,144.06h-4.84v-1.21a6.85,6.85,0,0,1-4.73,1.66c-4,0-7.42-3.24-7.42-8s3.39-8.06,7.42-8.06a6.86,6.86,0,0,1,4.73,1.67v-1.21H247Zm-4.84-7.6a3.8,3.8,0,0,0-3.73-3.94,4,4,0,0,0,0,7.88A3.78,3.78,0,0,0,242.14,136.46Z"/><path class="cls-3" d="M254.19,139.12c.22,1.31,1.4,1.79,2.7,1.79s2-.54,2-1.21c0-.52-.4-.91-1.52-1.12l-3.09-.61c-2.81-.51-4.42-2-4.42-4.42,0-3.12,2.7-5.15,6.54-5.15s6.3,1.73,6.91,4.36l-4.42.88a2.36,2.36,0,0,0-2.55-1.79c-1.3,0-1.72.64-1.72,1.19s.18.84,1.15,1.06l3.57.72c2.88.61,4.21,2.33,4.21,4.58,0,3.36-2.9,5.11-6.9,5.11-3.58,0-6.64-1.3-7.15-4.42Z"/><path class="cls-3" d="M288,137.7H276.88a3.51,3.51,0,0,0,6.51,1.18l4.3.88c-1.3,3.21-4.05,4.75-7.54,4.75a8.06,8.06,0,0,1,0-16.11c4.3,0,7.76,3.09,7.85,8.06Zm-11.06-3h6.27a3,3,0,0,0-3.06-2.39A3.34,3.34,0,0,0,277,134.73Z"/><path class="cls-3" d="M306,134.73v9.33h-4.82v-8.3c0-1.79-1.06-3-2.6-3-1.91,0-3.15,1.31-3.15,4.24v7.06h-4.85v-15.2h4.85v1.45a6.28,6.28,0,0,1,4.66-1.91C303.6,128.4,306,130.92,306,134.73Z"/><path class="cls-3" d="M73.48,160.72a2.68,2.68,0,0,1-2.82,2.7,2.65,2.65,0,0,1-2.78-2.7A2.73,2.73,0,0,1,70.66,158,2.76,2.76,0,0,1,73.48,160.72Zm-5.24,19.69V165.2h4.85v15.21Z"/><path class="cls-3" d="M92.26,171.08v9.33H87.44v-8.3c0-1.79-1.06-3-2.6-3-1.91,0-3.15,1.3-3.15,4.24v7.06H76.84V165.2h4.85v1.46a6.28,6.28,0,0,1,4.66-1.91C89.9,164.75,92.26,167.26,92.26,171.08Z"/><path class="cls-3" d="M111.22,178.89c0,4.7-3.57,7.27-8.51,7.27-3.48,0-6.15-1.21-7.63-3.66l4-2.18a4.13,4.13,0,0,0,3.57,1.88,3.48,3.48,0,0,0,3.79-3.7v-.42a6.79,6.79,0,0,1-4.58,1.45,7.39,7.39,0,0,1,0-14.78,6.85,6.85,0,0,1,4.58,1.45v-1h4.75Zm-4.75-6.81a3.44,3.44,0,0,0-3.55-3.45,3.47,3.47,0,1,0,0,6.93A3.46,3.46,0,0,0,106.47,172.08Z"/><path class="cls-3" d="M129.67,174.05H118.52a3.51,3.51,0,0,0,6.51,1.18l4.31.88c-1.31,3.21-4.06,4.75-7.55,4.75a8.06,8.06,0,0,1,0-16.11c4.3,0,7.76,3.09,7.85,8.06Zm-11.06-3h6.27a3,3,0,0,0-3.06-2.39A3.34,3.34,0,0,0,118.61,171.08Z"/><path class="cls-3" d="M147.6,171.08v9.33h-4.82v-8.3c0-1.79-1.06-3-2.6-3-1.91,0-3.15,1.3-3.15,4.24v7.06h-4.85V165.2H137v1.46a6.28,6.28,0,0,1,4.66-1.91C145.24,164.75,147.6,167.26,147.6,171.08Z"/><path class="cls-3" d="M156.39,160.72a2.68,2.68,0,0,1-2.82,2.7,2.65,2.65,0,0,1-2.79-2.7,2.73,2.73,0,0,1,2.79-2.75A2.76,2.76,0,0,1,156.39,160.72Zm-5.24,19.69V165.2H156v15.21Z"/><path class="cls-3" d="M174.65,174.05H163.5a3.52,3.52,0,0,0,6.52,1.18l4.3.88c-1.31,3.21-4.06,4.75-7.55,4.75a8.06,8.06,0,0,1,0-16.11c4.3,0,7.75,3.09,7.84,8.06Zm-11.06-3h6.27a3,3,0,0,0-3.05-2.39A3.34,3.34,0,0,0,163.59,171.08Z"/><path class="cls-3" d="M188.34,165.11l-.21,4.85h-.88c-3.39,0-5.24,1.76-5.24,5.69v4.76h-4.84V165.2H182v2.91a5.89,5.89,0,0,1,5.24-3.12A4.19,4.19,0,0,1,188.34,165.11Z"/><path class="cls-3" d="M190.64,180.41V165.2h4.85v15.21Z"/><path class="cls-3" d="M215.24,180.41h-4.85V179.2a6.83,6.83,0,0,1-4.72,1.66c-4,0-7.42-3.24-7.42-8.05s3.39-8.06,7.42-8.06a6.83,6.83,0,0,1,4.72,1.67V165.2h4.85Zm-4.85-7.6a3.79,3.79,0,0,0-3.72-3.94,3.94,3.94,0,0,0,0,7.87A3.76,3.76,0,0,0,210.39,172.81Z"/><path class="cls-3" d="M233.32,185.56h-5.24l2.46-5.67-6.3-14.72h5.21l3.6,8.88,3.85-8.88h5.21Z"/><path class="cls-3" d="M266.76,178.89c0,4.7-3.57,7.27-8.51,7.27-3.48,0-6.15-1.21-7.63-3.66l4-2.18a4.13,4.13,0,0,0,3.57,1.88,3.48,3.48,0,0,0,3.79-3.7v-.42a6.79,6.79,0,0,1-4.58,1.45,7.39,7.39,0,0,1,0-14.78A6.85,6.85,0,0,1,262,166.2v-1h4.75ZM262,172.08a3.44,3.44,0,0,0-3.55-3.45,3.47,3.47,0,1,0,0,6.93A3.46,3.46,0,0,0,262,172.08Z"/><path class="cls-3" d="M285.21,174.05H274.06a3.51,3.51,0,0,0,6.51,1.18l4.31.88c-1.31,3.21-4.06,4.75-7.55,4.75a8.06,8.06,0,0,1,0-16.11c4.31,0,7.76,3.09,7.85,8.06Zm-11.06-3h6.27a3,3,0,0,0-3.06-2.39A3.34,3.34,0,0,0,274.15,171.08Z"/><path class="cls-3" d="M291.42,175.47c.21,1.3,1.39,1.79,2.7,1.79s2-.55,2-1.21-.39-.91-1.51-1.12l-3.09-.61c-2.82-.51-4.42-2-4.42-4.42,0-3.12,2.69-5.15,6.54-5.15s6.3,1.73,6.91,4.36l-4.43.88a2.36,2.36,0,0,0-2.54-1.79c-1.3,0-1.73.64-1.73,1.18s.19.85,1.15,1.06l3.58.73c2.88.61,4.21,2.33,4.21,4.57,0,3.37-2.91,5.12-6.91,5.12-3.57,0-6.63-1.3-7.14-4.42Z"/><path class="cls-3" d="M314.59,179.74a8.2,8.2,0,0,1-4.15,1.12c-3.78,0-6.06-2.06-6.06-6.05v-5.76h-2.75V165.2h2.75v-4.48h4.85v4.48h4.48v3.85h-4.48v5.27c0,1.58.76,2.21,2,2.21a5,5,0,0,0,2.21-.6Z"/><path class="cls-3" d="M321.92,160.72a2.8,2.8,0,0,1-5.6,0,2.8,2.8,0,0,1,5.6,0Zm-5.24,19.69V165.2h4.85v15.21Z"/><path class="cls-3" d="M341,172.81a8,8,0,0,1-8.32,8c-4.61,0-8.42-3.21-8.42-8s3.81-8,8.42-8S341,168,341,172.81Zm-4.66,0a3.72,3.72,0,1,0-3.66,3.93A3.78,3.78,0,0,0,336.37,172.81Z"/><path class="cls-3" d="M359,171.08v9.33h-4.82v-8.3c0-1.79-1.06-3-2.6-3-1.91,0-3.15,1.3-3.15,4.24v7.06h-4.85V165.2h4.85v1.46a6.26,6.26,0,0,1,4.66-1.91C356.6,164.75,359,167.26,359,171.08Z"/><path class="cls-3" d="M84,216.76H79.14v-1.21a6.83,6.83,0,0,1-4.72,1.66c-4,0-7.42-3.24-7.42-8.05s3.39-8.06,7.42-8.06a6.79,6.79,0,0,1,4.72,1.67v-1.22H84Zm-4.85-7.6a3.79,3.79,0,0,0-3.72-3.94,3.94,3.94,0,0,0,0,7.87A3.76,3.76,0,0,0,79.14,209.16Z"/><path class="cls-3" d="M113,207.25v9.51h-4.82v-8.48a2.58,2.58,0,0,0-2.54-2.82c-1.79,0-3,1.3-3,3.85v7.45H97.83v-8.48a2.58,2.58,0,0,0-2.57-2.82c-1.76,0-2.91,1.3-2.91,3.85v7.45H87.51V201.55h4.84V203a5.77,5.77,0,0,1,4.48-1.85,5.65,5.65,0,0,1,5,2.57,6.56,6.56,0,0,1,5.39-2.57A5.79,5.79,0,0,1,113,207.25Z"/><path class="cls-3" d="M133.3,209.16c0,4.81-3.39,8.05-7.42,8.05a6.83,6.83,0,0,1-4.72-1.66v1.21h-4.85V195h4.85v7.82a6.79,6.79,0,0,1,4.72-1.67C129.91,201.1,133.3,204.37,133.3,209.16Zm-4.75,0a3.66,3.66,0,0,0-3.67-3.94,3.94,3.94,0,0,0,0,7.87A3.64,3.64,0,0,0,128.55,209.16Z"/><path class="cls-3" d="M141.3,197.07a2.68,2.68,0,0,1-2.82,2.7,2.65,2.65,0,0,1-2.78-2.7,2.73,2.73,0,0,1,2.78-2.75A2.76,2.76,0,0,1,141.3,197.07Zm-5.24,19.69V201.55h4.85v15.21Z"/><path class="cls-3" d="M159.57,210.4H148.42a3.51,3.51,0,0,0,6.51,1.18l4.3.88c-1.3,3.21-4.06,4.75-7.54,4.75a8.06,8.06,0,0,1,0-16.11c4.3,0,7.75,3.09,7.85,8.06Zm-11.06-3h6.27a3,3,0,0,0-3.06-2.39A3.32,3.32,0,0,0,148.51,207.43Z"/><path class="cls-3" d="M177.5,207.43v9.33h-4.82v-8.3c0-1.79-1.06-3-2.6-3-1.91,0-3.15,1.3-3.15,4.24v7.06h-4.85V201.55h4.85V203a6.26,6.26,0,0,1,4.66-1.91C175.13,201.1,177.5,203.61,177.5,207.43Z"/><path class="cls-3" d="M192.07,216.09a8.23,8.23,0,0,1-4.15,1.12c-3.79,0-6.06-2.06-6.06-6.06V205.4H179.1v-3.85h2.76v-4.48h4.85v4.48h4.48v3.85h-4.48v5.27c0,1.57.75,2.21,2,2.21a4.9,4.9,0,0,0,2.21-.61Z"/><path class="cls-3" d="M209.61,216.76h-4.85v-1.21a6.85,6.85,0,0,1-4.73,1.66c-4,0-7.42-3.24-7.42-8.05s3.4-8.06,7.42-8.06a6.81,6.81,0,0,1,4.73,1.67v-1.22h4.85Zm-4.85-7.6a3.79,3.79,0,0,0-3.73-3.94,3.95,3.95,0,0,0,0,7.87A3.77,3.77,0,0,0,204.76,209.16Z"/><path class="cls-3" d="M213.12,216.76V195H218v21.81Z"/><polygon class="cls-1" points="330.55 162.4 334.95 162.4 338.81 158 333.85 158 330.55 162.4"/><polygon class="cls-1" points="190.66 162.95 195.06 162.95 198.92 158.55 193.96 158.55 190.66 162.95"/><path class="cls-4" d="M165.17,433.7a16.26,16.26,0,0,0-16.06-16.45c-.35,0-.69,0-1,0a4.33,4.33,0,0,1-4.38-3,23.12,23.12,0,0,0-21.82-15.92c-12.75,0-23.09,10.59-23.09,23.66h0a16,16,0,0,0-14.21,10,4.29,4.29,0,0,0,4,5.92h72.32a4.28,4.28,0,0,0,4.3-4.21Z"/><path class="cls-5" d="M172.87,397.53l41-87.66a6.59,6.59,0,0,1,12,0l40.76,87.64L221.75,500.79Z"/><path class="cls-6" d="M225.9,309.89a6.59,6.59,0,0,0-12,0L208.4,321.6l46.73,103.57,11.53-27.64Z"/><path class="cls-7" d="M105.19,473.41l58.4-124.89a6.58,6.58,0,0,1,12,0l57.88,124.36Z"/><path class="cls-8" d="M175.61,348.53a6.59,6.59,0,0,0-12,0l-7.05,15.07,50.87,109.3-102.17.42,0,.1,128.29-.52Z"/><path class="cls-7" d="M219.14,471.07l43.26-92.44a6.59,6.59,0,0,1,12,0l43.82,93.46Z"/><path class="cls-8" d="M274.41,378.65a6.59,6.59,0,0,0-12,0l-5.48,11.73,38.37,83.84h24Z"/><path class="cls-9" d="M161.7,392.31a9.1,9.1,0,0,1,4.59,7.94V410A8.85,8.85,0,1,0,184,410V397.41a9.11,9.11,0,0,1,3.93-7.53l5.36-3.39-17.66-38a6.59,6.59,0,0,0-12,0L147,384.05l.28.15Z"/><path class="cls-9" d="M203.47,354.38a6.55,6.55,0,0,1,2.27,5v14.39a8.85,8.85,0,1,0,17.69,0v-7.2a6.43,6.43,0,0,1,6.35-6.51,12.85,12.85,0,0,0,12.69-13v-1.51L225.9,309.89a6.59,6.59,0,0,0-12,0L196.05,348l1.3,1.14Z"/><path class="cls-10" d="M229.78,360a12.85,12.85,0,0,0,12.69-13v-1.5L225.9,309.89a6.59,6.59,0,0,0-12,0L208.4,321.6l17.84,39.55A6.2,6.2,0,0,1,229.78,360Z"/><path class="cls-9" d="M253.61,411.85a15,15,0,0,0,11.53-5.47,15,15,0,0,1,11.53-5.45h8.11l-10.37-22.28a6.59,6.59,0,0,0-12,0l-15.54,33.22Z"/><path class="cls-10" d="M276.67,400.93h8.11l-10.37-22.28a6.59,6.59,0,0,0-12,0l-5.2,11.11,7.64,17c.1-.12.2-.23.3-.36A15,15,0,0,1,276.67,400.93Z"/><path class="cls-10" d="M175.61,348.53a6.59,6.59,0,0,0-12,0L157.29,362l24,54.52A9.14,9.14,0,0,0,184,410V397.41a9.13,9.13,0,0,1,3.93-7.54l5.36-3.38Z"/><path class="cls-11" d="M89,467.27H336.66v.89c-14.84,55.93-64.63,97-123.78,97-59.33,0-109.25-41.38-123.91-97.57Z"/><path class="cls-12" d="M308,467.27v.89c-13.62,51.34-56.7,90.2-109.43,96.22a125.93,125.93,0,0,0,14.34.82c59.15,0,108.94-41.11,123.78-97v-.89Z"/><path class="cls-13" d="M127.67,493.06c-3.28-5.12.26-14.07,4.72-23.83l.86-2H89v.36a132.08,132.08,0,0,0,47.69,71.79l.27-2.59S141.87,515.26,127.67,493.06Z"/><path class="cls-13" d="M293.39,507.15c-22.81-8.5-17.28,31.15-60.12,19.82-18.78-5-20,28.32-20.73,36.82l-.15,1.41h.49c41.28,0,78-20,101.46-51.13l-.57-.19S316.19,515.65,293.39,507.15Z"/><path class="cls-13" d="M307.18,522.74l-.08.09Z"/><path class="cls-14" d="M293.39,507.16a22.07,22.07,0,0,0-2.38-.74,128.43,128.43,0,0,1-78.33,55.52c-.05.7-.1,1.33-.14,1.85l-.15,1.41c39.19.15,79-19,101.95-51.13l-.57-.19S316.19,515.65,293.39,507.16Z"/><path class="cls-4" d="M337.78,341.3a16.26,16.26,0,0,0-16-16.45c-.35,0-.7,0-1,0a4.31,4.31,0,0,1-4.38-3A23.14,23.14,0,0,0,294.49,306c-12.75,0-23.09,10.59-23.09,23.66h0a16.08,16.08,0,0,0-14.22,10,4.29,4.29,0,0,0,4,5.92h72.32a4.27,4.27,0,0,0,4.3-4.21Z"/><path class="cls-4" d="M278,435.57a12.79,12.79,0,0,1,12.63-12.95l.79,0a3.4,3.4,0,0,0,3.47-2.31,18.12,18.12,0,0,1,35.36,6.07h0a12.65,12.65,0,0,1,11.19,7.83,3.39,3.39,0,0,1-3.15,4.67h-56.9A3.36,3.36,0,0,1,278,435.6Z"/><path class="cls-15" d="M140.65,332.08a21.91,21.91,0,1,1-21.9-21.91A21.91,21.91,0,0,1,140.65,332.08Z"/></svg>