<svg id="Capa_1" data-name="Capa 1" xmlns="http://www.w3.org/2000/svg" xmlns:xlink="http://www.w3.org/1999/xlink" viewBox="0 0 1440 1024"><defs><style>.cls-1{fill:#fff;}.cls-2{fill:url(#Degradado_sin_nombre_29);}.cls-3{fill:#cbe6f7;}.cls-4{fill:#ab632e;}.cls-5{fill:#995929;}.cls-6{fill:#de9252;}.cls-7{fill:#d9833b;}.cls-8{fill:#f0f0f0;}.cls-9{fill:#e8e8e8;}.cls-10{fill:#89c8fd;}.cls-11{fill:#60b6ff;}.cls-12{fill:#baeb6c;}.cls-13{fill:#96d629;}.cls-14{fill:#ffe469;}.cls-15{fill:#f9f9f9;}</style><linearGradient id="Degradado_sin_nombre_29" y1="512" x2="1261" y2="512" gradientUnits="userSpaceOnUse"><stop offset="0" stop-color="#4e88dd"/><stop offset="1" stop-color="#8cf2ff"/></linearGradient></defs><title>indexPage2</title><rect class="cls-1" width="1440" height="1024"/><path class="cls-2" d="M0,1024V0H1243.75c13.9,47.85,26.1,117.23,8.56,195C1210.4,380.74,1028,485.24,847,585Q443.45,807.45,0,1024Z"/><path class="cls-3" d="M972.93,449.44c0-17-13.44-30.75-30-30.75-.65,0-1.3,0-1.94.07a8.09,8.09,0,0,1-8.19-5.54c-5.84-17.33-21.89-29.77-40.79-29.77-23.84,0-43.16,19.8-43.16,44.23v0a30,30,0,0,0-26.58,18.62,8,8,0,0,0,7.45,11.07H964.89a8,8,0,0,0,8-7.87Z"/><path class="cls-4" d="M987.32,381.83,1064,218a12.32,12.32,0,0,1,22.46,0l76.2,163.84-84,193Z"/><path class="cls-5" d="M1086.46,218a12.32,12.32,0,0,0-22.46,0l-10.26,21.92L1141.1,433.5l21.56-51.67Z"/><path class="cls-6" d="M860.8,523.68,970,290.2a12.32,12.32,0,0,1,22.46,0l108.2,232.48Z"/><path class="cls-7" d="M992.44,290.23a12.32,12.32,0,0,0-22.46,0L956.8,318.39l95.1,204.32-191,.78-.09.19,239.84-1Z"/><path class="cls-6" d="M1073.83,519.3l80.87-172.8a12.32,12.32,0,0,1,22.46,0l81.91,174.72Z"/><path class="cls-7" d="M1177.16,346.53a12.32,12.32,0,0,0-22.46,0l-10.26,21.92,71.73,156.73H1261Z"/><path class="cls-8" d="M966.44,372.07A17,17,0,0,1,975,386.92v18.19a16.53,16.53,0,1,0,33.06,0v-23.5a17,17,0,0,1,7.36-14.09l10-6.33-33-71a12.32,12.32,0,0,0-22.46,0l-31.06,66.43.51.28Z"/><path class="cls-8" d="M1044.53,301.16a12.25,12.25,0,0,1,4.25,9.32v26.89a16.53,16.53,0,1,0,33.06,0V323.91a12,12,0,0,1,11.87-12.16c13.11,0,23.73-10.88,23.73-24.32v-2.82l-31-66.62a12.32,12.32,0,0,0-22.46,0l-33.33,71.24,2.43,2.14Z"/><path class="cls-9" d="M1093.71,311.75c13.11,0,23.73-10.89,23.73-24.32v-2.82l-31-66.62a12.32,12.32,0,0,0-22.46,0l-10.26,21.92,33.36,73.93A11.61,11.61,0,0,1,1093.71,311.75Z"/><path class="cls-8" d="M1138.27,408.59a28,28,0,0,0,21.56-10.21,28,28,0,0,1,21.55-10.2h15.15l-19.37-41.65a12.32,12.32,0,0,0-22.46,0l-29,62.09Z"/><path class="cls-9" d="M1181.38,388.18h15.15l-19.37-41.65a12.32,12.32,0,0,0-22.46,0L1145,367.27,1159.25,399c.19-.22.39-.43.58-.66A28,28,0,0,1,1181.38,388.18Z"/><path class="cls-9" d="M992.44,290.23a12.32,12.32,0,0,0-22.46,0L958.2,315.38,1003,417.3a17.08,17.08,0,0,0,5.07-12.19v-23.5a17,17,0,0,1,7.36-14.09l10-6.33Z"/><path class="cls-10" d="M830.48,512.19h463v1.68c-27.74,104.55-120.83,181.41-231.39,181.41-110.92,0-204.24-77.35-231.65-182.41Z"/><path class="cls-11" d="M1239.89,512.19v1.68c-25.46,96-106,168.61-204.57,179.88a237.43,237.43,0,0,0,26.81,1.53c110.56,0,203.65-76.86,231.39-181.41v-1.68Z"/><path class="cls-12" d="M902.83,560.41c-6.13-9.57.49-26.3,8.82-44.54l1.62-3.67H830.48v.67a246.87,246.87,0,0,0,89.16,134.21l.5-4.84S929.38,601.91,902.83,560.41Z"/><path class="cls-12" d="M1212.62,586.75c-42.62-15.88-32.29,58.24-112.38,37.06-35.11-9.28-37.46,52.94-38.76,68.82l-.27,2.64h.92c77.16,0,145.8-37.44,189.66-95.59l-1.06-.36S1255.25,602.64,1212.62,586.75Z"/><path class="cls-12" d="M1238.4,615.9a1.07,1.07,0,0,0-.14.16A1.07,1.07,0,0,1,1238.4,615.9Z"/><path class="cls-13" d="M1212.62,586.76a39.39,39.39,0,0,0-4.43-1.36c-33.55,51.69-85.6,89.61-146.44,103.78-.1,1.32-.18,2.48-.27,3.46l-.27,2.64c73.26.28,147.65-35.48,190.58-95.58l-1.06-.36S1255.25,602.65,1212.62,586.76Z"/><path class="cls-3" d="M1295.62,276.71c0-17-13.44-30.75-30-30.75-.65,0-1.3,0-1.94.07a8.08,8.08,0,0,1-8.19-5.54c-5.84-17.33-21.89-29.77-40.79-29.77-23.84,0-43.16,19.8-43.16,44.23v0a30,30,0,0,0-26.58,18.62,8,8,0,0,0,7.45,11.07h135.19a8,8,0,0,0,8-7.86Z"/><path class="cls-3" d="M1183.91,452.94c0-13.37,10.57-24.21,23.62-24.21.5,0,1,0,1.47,0a6.39,6.39,0,0,0,6.49-4.32A34.07,34.07,0,0,1,1247.62,401c18.77,0,34,15.58,34,34.81v0a23.66,23.66,0,0,1,20.91,14.63,6.34,6.34,0,0,1-5.9,8.74H1190.26a6.29,6.29,0,0,1-6.35-6.19Z"/><path class="cls-14" d="M927.1,259.47a40.95,40.95,0,1,1-41-41A41,41,0,0,1,927.1,259.47Z"/><path class="cls-15" d="M168,378.7H139.28V341.85h28.54v7.81H148.35v6.93h17.88V364H148.35v6.93H168Z"/><path class="cls-15" d="M180.37,369.73c.38,2.37,2.52,3.25,4.89,3.25s3.57-1,3.57-2.2c0-.94-.71-1.65-2.75-2l-5.6-1.1c-5.12-.93-8-3.68-8-8,0-5.67,4.89-9.35,11.87-9.35s11.44,3.13,12.54,7.92l-8,1.59c-.27-1.7-1.92-3.24-4.62-3.24-2.36,0-3.13,1.15-3.13,2.14,0,.77.33,1.54,2.09,1.92l6.49,1.32c5.22,1.1,7.64,4.24,7.64,8.31,0,6.1-5.28,9.29-12.54,9.29-6.48,0-12-2.36-13-8Z"/><path class="cls-15" d="M232.83,364.89c0,8.75-6.16,14.63-13.47,14.63a12.44,12.44,0,0,1-8.58-3v11.55H202v-37h8.8v2.2a12.44,12.44,0,0,1,8.58-3C226.67,350.27,232.83,356.21,232.83,364.89Zm-8.63,0c0-4.23-2.81-7.14-6.66-7.14a7.16,7.16,0,0,0,0,14.29C221.39,372,224.2,369.18,224.2,364.89Z"/><path class="cls-15" d="M264.46,367.15H244.22c.72,3.3,3,5.33,5.94,5.33a6.12,6.12,0,0,0,5.88-3.19l7.81,1.6c-2.36,5.83-7.37,8.63-13.69,8.63a14.63,14.63,0,0,1,.05-29.25c7.81,0,14.08,5.61,14.25,14.62Zm-20.07-5.39h11.38a5.52,5.52,0,0,0-5.56-4.34A6,6,0,0,0,244.39,361.76Z"/><path class="cls-15" d="M288.27,367l8.09,1.76c-1.38,6.55-7.21,10.78-14.08,10.78-8.25,0-15.07-5.88-15.07-14.63s6.82-14.62,15.07-14.62c6.71,0,12.54,4.12,14.08,10.61l-8.25,2c-.77-3.35-3-4.89-5.83-4.89-4,0-6.6,2.91-6.6,6.92s2.64,6.93,6.6,6.93C285.08,371.82,287.34,370.34,288.27,367Z"/><path class="cls-15" d="M310.88,343a4.86,4.86,0,0,1-5.12,4.9,4.81,4.81,0,0,1-5.05-4.9,5,5,0,0,1,5.05-5A5,5,0,0,1,310.88,343Zm-9.51,35.75V351.09h8.79V378.7Z"/><path class="cls-15" d="M346,378.7h-8.8v-2.2a12.44,12.44,0,0,1-8.58,3c-7.31,0-13.47-5.88-13.47-14.63s6.16-14.62,13.47-14.62a12.44,12.44,0,0,1,8.58,3v-2.2H346Zm-8.8-13.81a6.88,6.88,0,0,0-6.76-7.14c-3.85,0-6.66,2.91-6.66,7.14s2.81,7.15,6.66,7.15A6.85,6.85,0,0,0,337.22,364.89Z"/><path class="cls-15" d="M352.4,378.7V339.1h8.8v39.6Z"/><path class="cls-15" d="M377.54,343a4.86,4.86,0,0,1-5.12,4.9,4.81,4.81,0,0,1-5.06-4.9,5,5,0,0,1,5.06-5A5,5,0,0,1,377.54,343ZM368,378.7V351.09h8.8V378.7Z"/><path class="cls-15" d="M390.35,369.73c.39,2.37,2.53,3.25,4.9,3.25s3.57-1,3.57-2.2c0-.94-.71-1.65-2.75-2l-5.61-1.1c-5.11-.93-8-3.68-8-8,0-5.67,4.9-9.35,11.88-9.35s11.44,3.13,12.54,7.92l-8,1.59c-.27-1.7-1.92-3.24-4.62-3.24-2.36,0-3.13,1.15-3.13,2.14,0,.77.33,1.54,2.09,1.92l6.49,1.32c5.22,1.1,7.64,4.24,7.64,8.31,0,6.1-5.28,9.29-12.54,9.29-6.49,0-12-2.36-13-8Z"/><path class="cls-15" d="M432.43,377.49a15.06,15.06,0,0,1-7.54,2c-6.87,0-11-3.74-11-11V358.08h-5v-7h5V343h8.8v8.14h8.14v7h-8.14v9.56c0,2.86,1.38,4,3.69,4a9,9,0,0,0,4-1.1Z"/><path class="cls-15" d="M464.27,378.7h-8.8v-2.2a12.44,12.44,0,0,1-8.58,3c-7.31,0-13.47-5.88-13.47-14.63s6.16-14.62,13.47-14.62a12.44,12.44,0,0,1,8.58,3v-2.2h8.8Zm-8.8-13.81a6.88,6.88,0,0,0-6.76-7.14c-3.85,0-6.66,2.91-6.66,7.14s2.81,7.15,6.66,7.15A6.85,6.85,0,0,0,455.47,364.89Z"/><path class="cls-15" d="M477.36,369.73c.39,2.37,2.53,3.25,4.9,3.25s3.57-1,3.57-2.2c0-.94-.71-1.65-2.75-2l-5.61-1.1c-5.11-.93-8-3.68-8-8,0-5.67,4.9-9.35,11.88-9.35s11.44,3.13,12.54,7.92l-8,1.59c-.27-1.7-1.92-3.24-4.62-3.24-2.36,0-3.13,1.15-3.13,2.14,0,.77.33,1.54,2.09,1.92l6.49,1.32c5.22,1.1,7.64,4.24,7.64,8.31,0,6.1-5.28,9.29-12.54,9.29-6.49,0-12-2.36-13-8Z"/><path class="cls-15" d="M538.8,367.15H518.56c.71,3.3,3,5.33,5.94,5.33a6.12,6.12,0,0,0,5.88-3.19l7.81,1.6c-2.36,5.83-7.37,8.63-13.69,8.63a14.63,14.63,0,0,1,0-29.25c7.81,0,14.08,5.61,14.25,14.62Zm-20.08-5.39h11.39a5.52,5.52,0,0,0-5.56-4.34A6.06,6.06,0,0,0,518.72,361.76Z"/><path class="cls-15" d="M571.35,361.76V378.7h-8.74V363.63c0-3.24-1.92-5.44-4.73-5.44-3.46,0-5.72,2.36-5.72,7.69V378.7h-8.8V351.09h8.8v2.64a11.39,11.39,0,0,1,8.47-3.46C567.07,350.27,571.35,354.83,571.35,361.76Z"/><path class="cls-15" d="M149.23,409a5.09,5.09,0,0,1-10.17,0,5.09,5.09,0,0,1,10.17,0Zm-9.51,35.75V417.09h8.8V444.7Z"/><path class="cls-15" d="M183.33,427.76V444.7h-8.74V429.63c0-3.24-1.93-5.44-4.73-5.44-3.47,0-5.72,2.36-5.72,7.69V444.7h-8.8V417.09h8.8v2.64a11.37,11.37,0,0,1,8.47-3.46C179,416.27,183.33,420.83,183.33,427.76Z"/><path class="cls-15" d="M217.76,442c0,8.52-6.49,13.2-15.45,13.2-6.33,0-11.16-2.2-13.86-6.66l7.31-4c2.09,2.48,3.63,3.41,6.49,3.41,4,0,6.88-2.36,6.88-6.71v-.77c-2,1.71-4.73,2.64-8.31,2.64a13.42,13.42,0,0,1,0-26.83c3.58,0,6.33.93,8.31,2.64v-1.82h8.63Zm-8.63-12.38a6.23,6.23,0,0,0-6.44-6.26c-3.85,0-6.6,2.58-6.6,6.26a6.52,6.52,0,0,0,13,0Z"/><path class="cls-15" d="M251.26,433.15H231c.71,3.3,3,5.33,5.94,5.33a6.12,6.12,0,0,0,5.88-3.19l7.81,1.6c-2.36,5.83-7.37,8.63-13.69,8.63a14.63,14.63,0,0,1,0-29.25c7.81,0,14.08,5.61,14.25,14.62Zm-20.08-5.39h11.39a5.52,5.52,0,0,0-5.56-4.34A6.06,6.06,0,0,0,231.18,427.76Z"/><path class="cls-15" d="M283.82,427.76V444.7h-8.75V429.63c0-3.24-1.92-5.44-4.73-5.44-3.46,0-5.72,2.36-5.72,7.69V444.7h-8.8V417.09h8.8v2.64a11.39,11.39,0,0,1,8.47-3.46C279.53,416.27,283.82,420.83,283.82,427.76Z"/><path class="cls-15" d="M299.77,409a4.86,4.86,0,0,1-5.12,4.9,4.81,4.81,0,0,1-5.06-4.9,5,5,0,0,1,5.06-5A5,5,0,0,1,299.77,409Zm-9.52,35.75V417.09h8.8V444.7Z"/><path class="cls-15" d="M332.93,433.15H312.69c.72,3.3,3,5.33,5.94,5.33a6.13,6.13,0,0,0,5.89-3.19l7.81,1.6c-2.37,5.83-7.37,8.63-13.7,8.63a14.63,14.63,0,0,1,.06-29.25c7.81,0,14.08,5.61,14.24,14.62Zm-20.07-5.39h11.38a5.5,5.5,0,0,0-5.55-4.34A6,6,0,0,0,312.86,427.76Z"/><path class="cls-15" d="M357.79,416.93l-.38,8.8h-1.6c-6.16,0-9.51,3.19-9.51,10.33v8.64h-8.8V417.09h8.8v5.28c2-3.3,5-5.66,9.51-5.66A7.33,7.33,0,0,1,357.79,416.93Z"/><path class="cls-15" d="M362,444.7V417.09h8.8V444.7Z"/><path class="cls-15" d="M406.63,444.7h-8.8v-2.2a12.44,12.44,0,0,1-8.58,3c-7.31,0-13.47-5.88-13.47-14.63s6.16-14.62,13.47-14.62a12.44,12.44,0,0,1,8.58,3v-2.2h8.8Zm-8.8-13.81a6.88,6.88,0,0,0-6.76-7.14c-3.85,0-6.66,2.91-6.66,7.14s2.81,7.15,6.66,7.15A6.85,6.85,0,0,0,397.83,430.89Z"/><path class="cls-15" d="M439.47,454.05H430l4.46-10.29L423,417h9.46L439,433.15,446,417h9.45Z"/><path class="cls-15" d="M500.18,442c0,8.52-6.49,13.2-15.45,13.2-6.32,0-11.16-2.2-13.86-6.66l7.32-4c2.09,2.48,3.63,3.41,6.48,3.41,4,0,6.88-2.36,6.88-6.71v-.77c-2,1.71-4.73,2.64-8.3,2.64a13.42,13.42,0,0,1,0-26.83c3.57,0,6.32.93,8.3,2.64v-1.82h8.63Zm-8.63-12.38a6.23,6.23,0,0,0-6.44-6.26c-3.84,0-6.59,2.58-6.59,6.26a6.52,6.52,0,0,0,13,0Z"/><path class="cls-15" d="M533.68,433.15H513.44c.71,3.3,3,5.33,5.94,5.33a6.12,6.12,0,0,0,5.88-3.19l7.81,1.6c-2.36,5.83-7.37,8.63-13.69,8.63a14.63,14.63,0,0,1,0-29.25c7.81,0,14.08,5.61,14.25,14.62Zm-20.08-5.39H525a5.52,5.52,0,0,0-5.56-4.34A6.06,6.06,0,0,0,513.6,427.76Z"/><path class="cls-15" d="M545,435.73c.38,2.37,2.52,3.25,4.89,3.25s3.57-1,3.57-2.2c0-.94-.71-1.65-2.75-2l-5.61-1.1c-5.11-.93-8-3.68-8-8,0-5.67,4.89-9.35,11.87-9.35s11.44,3.13,12.54,7.92l-8,1.59c-.27-1.7-1.92-3.24-4.62-3.24-2.36,0-3.13,1.15-3.13,2.14,0,.77.33,1.54,2.09,1.92l6.49,1.32c5.22,1.1,7.64,4.24,7.64,8.31,0,6.1-5.28,9.29-12.54,9.29-6.48,0-12-2.36-13-8Z"/><path class="cls-15" d="M587,443.49a15.06,15.06,0,0,1-7.54,2c-6.87,0-11-3.74-11-11V424.08h-5v-7h5V409h8.79v8.14h8.14v7h-8.14v9.56c0,2.86,1.38,4,3.69,4a9,9,0,0,0,4-1.1Z"/><path class="cls-15" d="M600.34,409a5.09,5.09,0,0,1-10.17,0,5.09,5.09,0,0,1,10.17,0Zm-9.51,35.75V417.09h8.79V444.7Z"/><path class="cls-15" d="M635,430.89c0,8.75-6.93,14.58-15.12,14.58-8.36,0-15.29-5.83-15.29-14.58s6.93-14.51,15.29-14.51C628.11,416.38,635,422.21,635,430.89Zm-8.47,0a6.75,6.75,0,1,0-6.65,7.15A6.86,6.86,0,0,0,626.57,430.89Z"/><path class="cls-15" d="M667.6,427.76V444.7h-8.74V429.63c0-3.24-1.93-5.44-4.73-5.44-3.47,0-5.72,2.36-5.72,7.69V444.7h-8.8V417.09h8.8v2.64a11.37,11.37,0,0,1,8.47-3.46C663.31,416.27,667.6,420.83,667.6,427.76Z"/><path class="cls-15" d="M168.32,510.7h-8.8v-2.2a12.47,12.47,0,0,1-8.58,3c-7.31,0-13.47-5.88-13.47-14.63s6.16-14.62,13.47-14.62a12.47,12.47,0,0,1,8.58,3v-2.2h8.8Zm-8.8-13.81a6.88,6.88,0,0,0-6.77-7.14c-3.85,0-6.65,2.91-6.65,7.14s2.8,7.15,6.65,7.15A6.85,6.85,0,0,0,159.52,496.89Z"/><path class="cls-15" d="M221,493.43V510.7h-8.74V495.3c0-3.13-2-5.11-4.62-5.11-3.24,0-5.39,2.36-5.39,7V510.7h-8.8V495.3c0-3.13-2-5.11-4.67-5.11-3.19,0-5.28,2.36-5.28,7V510.7h-8.8V483.09h8.8v2.53a10.44,10.44,0,0,1,8.14-3.35,10.24,10.24,0,0,1,9,4.67,11.9,11.9,0,0,1,9.79-4.67C216.33,482.27,221,486.72,221,493.43Z"/><path class="cls-15" d="M257.86,496.89c0,8.75-6.16,14.63-13.48,14.63a12.47,12.47,0,0,1-8.58-3v2.2H227V471.1h8.8v14.19a12.47,12.47,0,0,1,8.58-3C251.7,482.27,257.86,488.21,257.86,496.89Zm-8.64,0c0-4.23-2.8-7.14-6.65-7.14a7.16,7.16,0,0,0,0,14.29C246.42,504,249.22,501.18,249.22,496.89Z"/><path class="cls-15" d="M272.38,475a4.86,4.86,0,0,1-5.12,4.9,4.81,4.81,0,0,1-5.05-4.9,5,5,0,0,1,5.05-5A5,5,0,0,1,272.38,475Zm-9.52,35.75V483.09h8.8V510.7Z"/><path class="cls-15" d="M305.54,499.15H285.3c.72,3.3,3,5.33,5.94,5.33a6.13,6.13,0,0,0,5.89-3.19l7.81,1.6c-2.37,5.83-7.37,8.63-13.7,8.63a14.63,14.63,0,0,1,.06-29.25c7.81,0,14.08,5.61,14.24,14.62Zm-20.07-5.39h11.38a5.5,5.5,0,0,0-5.55-4.34A6,6,0,0,0,285.47,493.76Z"/><path class="cls-15" d="M338.1,493.76V510.7h-8.74V495.63c0-3.25-1.93-5.44-4.73-5.44-3.47,0-5.72,2.36-5.72,7.69V510.7h-8.8V483.09h8.8v2.64a11.37,11.37,0,0,1,8.47-3.46C333.81,482.27,338.1,486.83,338.1,493.76Z"/><path class="cls-15" d="M364.56,509.49a15.06,15.06,0,0,1-7.54,2c-6.87,0-11-3.74-11-11V490.08h-5v-7h5V475h8.8v8.14H363v7h-8.14v9.56c0,2.86,1.38,4,3.69,4a9,9,0,0,0,4-1.1Z"/><path class="cls-15" d="M396.4,510.7h-8.8v-2.2a12.44,12.44,0,0,1-8.58,3c-7.31,0-13.47-5.88-13.47-14.63s6.16-14.62,13.47-14.62a12.44,12.44,0,0,1,8.58,3v-2.2h8.8Zm-8.8-13.81a6.88,6.88,0,0,0-6.76-7.14c-3.85,0-6.66,2.91-6.66,7.14S377,504,380.84,504A6.85,6.85,0,0,0,387.6,496.89Z"/><path class="cls-15" d="M402.78,510.7V471.1h8.8v39.6Z"/><polygon class="cls-1" points="616 412 624 412 631 404 622 404 616 412"/><polygon class="cls-1" points="362 413 370 413 377 405 368 405 362 413"/></svg>