<svg id="Capa_1" data-name="Capa 1" xmlns="http://www.w3.org/2000/svg" xmlns:xlink="http://www.w3.org/1999/xlink" viewBox="0 0 1440 1024"><defs><style>.cls-1{fill:#fff;}.cls-2{fill:url(#Degradado_sin_nombre_29);}.cls-3{fill:#cbe6f7;}.cls-4{fill:#ab632e;}.cls-5{fill:#995929;}.cls-6{fill:#de9252;}.cls-7{fill:#d9833b;}.cls-8{fill:#f0f0f0;}.cls-9{fill:#e8e8e8;}.cls-10{fill:#89c8fd;}.cls-11{fill:#60b6ff;}.cls-12{fill:#baeb6c;}.cls-13{fill:#96d629;}.cls-14{fill:#ffe469;}.cls-15{fill:#f9f9f9;}</style><linearGradient id="Degradado_sin_nombre_29" y1="512" x2="1261" y2="512" gradientUnits="userSpaceOnUse"><stop offset="0" stop-color="#4e88dd"/><stop offset="1" stop-color="#8cf2ff"/></linearGradient></defs><title>fondoPrincipal</title><rect class="cls-1" width="1440" height="1024"/><path class="cls-2" d="M0,1024V0H1243.75c13.9,47.85,26.1,117.23,8.56,195C1210.4,380.74,1028,485.24,847,585Q443.45,807.45,0,1024Z"/><path class="cls-3" d="M973.93,508.44c0-17-13.44-30.75-30-30.75-.65,0-1.3,0-1.94.07a8.09,8.09,0,0,1-8.19-5.54c-5.84-17.33-21.89-29.77-40.79-29.77-23.84,0-43.16,19.8-43.16,44.23v0a30,30,0,0,0-26.58,18.62,8,8,0,0,0,7.45,11.07H965.89a8,8,0,0,0,8-7.87Z"/><path class="cls-4" d="M988.32,440.83,1065,277a12.32,12.32,0,0,1,22.46,0l76.2,163.84-84,193Z"/><path class="cls-5" d="M1087.46,277a12.32,12.32,0,0,0-22.46,0l-10.26,21.92L1142.1,492.5l21.56-51.67Z"/><path class="cls-6" d="M861.8,582.68,971,349.2a12.32,12.32,0,0,1,22.46,0l108.2,232.48Z"/><path class="cls-7" d="M993.44,349.23a12.32,12.32,0,0,0-22.46,0L957.8,377.39l95.1,204.32-191,.78-.09.19,239.84-1Z"/><path class="cls-6" d="M1074.83,578.3l80.87-172.8a12.32,12.32,0,0,1,22.46,0l81.91,174.72Z"/><path class="cls-7" d="M1178.16,405.53a12.32,12.32,0,0,0-22.46,0l-10.26,21.92,71.73,156.73H1262Z"/><path class="cls-8" d="M967.44,431.07A17,17,0,0,1,976,445.92v18.19a16.53,16.53,0,1,0,33.06,0v-23.5a17,17,0,0,1,7.36-14.09l10-6.33-33-71a12.32,12.32,0,0,0-22.46,0l-31.06,66.43.51.28Z"/><path class="cls-8" d="M1045.53,360.16a12.25,12.25,0,0,1,4.25,9.32v26.89a16.53,16.53,0,1,0,33.06,0V382.91a12,12,0,0,1,11.87-12.16c13.11,0,23.73-10.88,23.73-24.32v-2.82l-31-66.62a12.32,12.32,0,0,0-22.46,0l-33.33,71.24,2.43,2.14Z"/><path class="cls-9" d="M1094.71,370.75c13.11,0,23.73-10.89,23.73-24.32v-2.82l-31-66.62a12.32,12.32,0,0,0-22.46,0l-10.26,21.92,33.36,73.93A11.61,11.61,0,0,1,1094.71,370.75Z"/><path class="cls-8" d="M1139.27,467.59a28,28,0,0,0,21.56-10.21,28,28,0,0,1,21.55-10.2h15.15l-19.37-41.65a12.32,12.32,0,0,0-22.46,0l-29,62.09Z"/><path class="cls-9" d="M1182.38,447.18h15.15l-19.37-41.65a12.32,12.32,0,0,0-22.46,0L1146,426.27,1160.25,458c.19-.22.39-.43.58-.66A28,28,0,0,1,1182.38,447.18Z"/><path class="cls-9" d="M993.44,349.23a12.32,12.32,0,0,0-22.46,0L959.2,374.38,1004,476.3a17.08,17.08,0,0,0,5.07-12.19v-23.5a17,17,0,0,1,7.36-14.09l10-6.33Z"/><path class="cls-10" d="M831.48,571.19h463v1.68c-27.74,104.55-120.83,181.41-231.39,181.41-110.92,0-204.24-77.35-231.65-182.41Z"/><path class="cls-11" d="M1240.89,571.19v1.68c-25.46,96-106,168.61-204.57,179.88a237.43,237.43,0,0,0,26.81,1.53c110.56,0,203.65-76.86,231.39-181.41v-1.68Z"/><path class="cls-12" d="M903.83,619.41c-6.13-9.57.49-26.3,8.82-44.54l1.62-3.67H831.48v.67a246.87,246.87,0,0,0,89.16,134.21l.5-4.84S930.38,660.91,903.83,619.41Z"/><path class="cls-12" d="M1213.62,645.75c-42.62-15.88-32.29,58.24-112.38,37.06-35.11-9.28-37.46,52.94-38.76,68.82l-.27,2.64h.92c77.16,0,145.8-37.44,189.66-95.59l-1.06-.36S1256.25,661.64,1213.62,645.75Z"/><path class="cls-12" d="M1239.4,674.9a1.07,1.07,0,0,0-.14.16A1.07,1.07,0,0,1,1239.4,674.9Z"/><path class="cls-13" d="M1213.62,645.76a39.39,39.39,0,0,0-4.43-1.36c-33.55,51.69-85.6,89.61-146.44,103.78-.1,1.32-.18,2.48-.27,3.46l-.27,2.64c73.26.28,147.65-35.48,190.58-95.58l-1.06-.36S1256.25,661.65,1213.62,645.76Z"/><path class="cls-3" d="M1296.62,335.71c0-17-13.44-30.75-30-30.75-.65,0-1.3,0-1.94.07a8.08,8.08,0,0,1-8.19-5.54c-5.84-17.33-21.89-29.77-40.79-29.77-23.84,0-43.16,19.8-43.16,44.23v0a30,30,0,0,0-26.58,18.62,8,8,0,0,0,7.45,11.07h135.19a8,8,0,0,0,8-7.86Z"/><path class="cls-3" d="M1184.91,511.94c0-13.37,10.57-24.21,23.62-24.21.5,0,1,0,1.47,0a6.39,6.39,0,0,0,6.49-4.32A34.07,34.07,0,0,1,1248.62,460c18.77,0,34,15.58,34,34.81v0a23.66,23.66,0,0,1,20.91,14.63,6.34,6.34,0,0,1-5.9,8.74H1191.26a6.29,6.29,0,0,1-6.35-6.19Z"/><path class="cls-14" d="M928.1,318.47a40.95,40.95,0,1,1-41-41A41,41,0,0,1,928.1,318.47Z"/><path class="cls-15" d="M169,437.7H140.28V400.85h28.54v7.81H149.35v6.93h17.88V423H149.35v6.93H169Z"/><path class="cls-15" d="M181.37,428.73c.38,2.37,2.52,3.25,4.89,3.25s3.57-1,3.57-2.2c0-.94-.71-1.65-2.75-2l-5.6-1.1c-5.12-.93-8-3.68-8-8,0-5.67,4.89-9.35,11.87-9.35s11.44,3.13,12.54,7.92l-8,1.59c-.27-1.7-1.92-3.24-4.62-3.24-2.36,0-3.13,1.15-3.13,2.14,0,.77.33,1.54,2.09,1.92l6.49,1.32c5.22,1.1,7.64,4.24,7.64,8.31,0,6.1-5.28,9.29-12.54,9.29-6.48,0-12-2.36-13-8Z"/><path class="cls-15" d="M233.83,423.89c0,8.75-6.16,14.63-13.47,14.63a12.44,12.44,0,0,1-8.58-3v11.55H203v-37h8.8v2.2a12.44,12.44,0,0,1,8.58-3C227.67,409.27,233.83,415.21,233.83,423.89Zm-8.63,0c0-4.23-2.81-7.14-6.66-7.14a7.16,7.16,0,0,0,0,14.29C222.39,431,225.2,428.18,225.2,423.89Z"/><path class="cls-15" d="M265.46,426.15H245.22c.72,3.3,3,5.33,5.94,5.33a6.12,6.12,0,0,0,5.88-3.19l7.81,1.6c-2.36,5.83-7.37,8.63-13.69,8.63a14.63,14.63,0,0,1,.05-29.25c7.81,0,14.08,5.61,14.25,14.62Zm-20.07-5.39h11.38a5.52,5.52,0,0,0-5.56-4.34A6,6,0,0,0,245.39,420.76Z"/><path class="cls-15" d="M289.27,426l8.09,1.76c-1.38,6.55-7.21,10.78-14.08,10.78-8.25,0-15.07-5.88-15.07-14.63s6.82-14.62,15.07-14.62c6.71,0,12.54,4.12,14.08,10.61l-8.25,2c-.77-3.35-3-4.89-5.83-4.89-4,0-6.6,2.91-6.6,6.92s2.64,6.93,6.6,6.93C286.08,430.82,288.34,429.34,289.27,426Z"/><path class="cls-15" d="M311.88,402a4.86,4.86,0,0,1-5.12,4.9,4.81,4.81,0,0,1-5.05-4.9,5,5,0,0,1,5.05-5A5,5,0,0,1,311.88,402Zm-9.51,35.75V410.09h8.79V437.7Z"/><path class="cls-15" d="M347,437.7h-8.8v-2.2a12.44,12.44,0,0,1-8.58,3c-7.31,0-13.47-5.88-13.47-14.63s6.16-14.62,13.47-14.62a12.44,12.44,0,0,1,8.58,3v-2.2H347Zm-8.8-13.81a6.88,6.88,0,0,0-6.76-7.14c-3.85,0-6.66,2.91-6.66,7.14s2.81,7.15,6.66,7.15A6.85,6.85,0,0,0,338.22,423.89Z"/><path class="cls-15" d="M353.4,437.7V398.1h8.8v39.6Z"/><path class="cls-15" d="M378.54,402a4.86,4.86,0,0,1-5.12,4.9,4.81,4.81,0,0,1-5.06-4.9,5,5,0,0,1,5.06-5A5,5,0,0,1,378.54,402ZM369,437.7V410.09h8.8V437.7Z"/><path class="cls-15" d="M391.35,428.73c.39,2.37,2.53,3.25,4.9,3.25s3.57-1,3.57-2.2c0-.94-.71-1.65-2.75-2l-5.61-1.1c-5.11-.93-8-3.68-8-8,0-5.67,4.9-9.35,11.88-9.35s11.44,3.13,12.54,7.92l-8,1.59c-.27-1.7-1.92-3.24-4.62-3.24-2.36,0-3.13,1.15-3.13,2.14,0,.77.33,1.54,2.09,1.92l6.49,1.32c5.22,1.1,7.64,4.24,7.64,8.31,0,6.1-5.28,9.29-12.54,9.29-6.49,0-12-2.36-13-8Z"/><path class="cls-15" d="M433.43,436.49a15.06,15.06,0,0,1-7.54,2c-6.87,0-11-3.74-11-11V417.08h-5v-7h5V402h8.8v8.14h8.14v7h-8.14v9.56c0,2.86,1.38,4,3.69,4a9,9,0,0,0,4-1.1Z"/><path class="cls-15" d="M465.27,437.7h-8.8v-2.2a12.44,12.44,0,0,1-8.58,3c-7.31,0-13.47-5.88-13.47-14.63s6.16-14.62,13.47-14.62a12.44,12.44,0,0,1,8.58,3v-2.2h8.8Zm-8.8-13.81a6.88,6.88,0,0,0-6.76-7.14c-3.85,0-6.66,2.91-6.66,7.14s2.81,7.15,6.66,7.15A6.85,6.85,0,0,0,456.47,423.89Z"/><path class="cls-15" d="M478.36,428.73c.39,2.37,2.53,3.25,4.9,3.25s3.57-1,3.57-2.2c0-.94-.71-1.65-2.75-2l-5.61-1.1c-5.11-.93-8-3.68-8-8,0-5.67,4.9-9.35,11.88-9.35s11.44,3.13,12.54,7.92l-8,1.59c-.27-1.7-1.92-3.24-4.62-3.24-2.36,0-3.13,1.15-3.13,2.14,0,.77.33,1.54,2.09,1.92l6.49,1.32c5.22,1.1,7.64,4.24,7.64,8.31,0,6.1-5.28,9.29-12.54,9.29-6.49,0-12-2.36-13-8Z"/><path class="cls-15" d="M539.8,426.15H519.56c.71,3.3,3,5.33,5.94,5.33a6.12,6.12,0,0,0,5.88-3.19l7.81,1.6c-2.36,5.83-7.37,8.63-13.69,8.63a14.63,14.63,0,0,1,0-29.25c7.81,0,14.08,5.61,14.25,14.62Zm-20.08-5.39h11.39a5.52,5.52,0,0,0-5.56-4.34A6.06,6.06,0,0,0,519.72,420.76Z"/><path class="cls-15" d="M572.35,420.76V437.7h-8.74V422.63c0-3.24-1.92-5.44-4.73-5.44-3.46,0-5.72,2.36-5.72,7.69V437.7h-8.8V410.09h8.8v2.64a11.39,11.39,0,0,1,8.47-3.46C568.07,409.27,572.35,413.83,572.35,420.76Z"/><path class="cls-15" d="M150.23,468a5.09,5.09,0,0,1-10.17,0,5.09,5.09,0,0,1,10.17,0Zm-9.51,35.75V476.09h8.8V503.7Z"/><path class="cls-15" d="M184.33,486.76V503.7h-8.74V488.63c0-3.24-1.93-5.44-4.73-5.44-3.47,0-5.72,2.36-5.72,7.69V503.7h-8.8V476.09h8.8v2.64a11.37,11.37,0,0,1,8.47-3.46C180,475.27,184.33,479.83,184.33,486.76Z"/><path class="cls-15" d="M218.76,501c0,8.52-6.49,13.2-15.45,13.2-6.33,0-11.16-2.2-13.86-6.66l7.31-4c2.09,2.48,3.63,3.41,6.49,3.41,4,0,6.88-2.36,6.88-6.71v-.77c-2,1.71-4.73,2.64-8.31,2.64a13.42,13.42,0,0,1,0-26.83c3.58,0,6.33.93,8.31,2.64v-1.82h8.63Zm-8.63-12.38a6.23,6.23,0,0,0-6.44-6.26c-3.85,0-6.6,2.58-6.6,6.26a6.52,6.52,0,0,0,13,0Z"/><path class="cls-15" d="M252.26,492.15H232c.71,3.3,3,5.33,5.94,5.33a6.12,6.12,0,0,0,5.88-3.19l7.81,1.6c-2.36,5.83-7.37,8.63-13.69,8.63a14.63,14.63,0,0,1,0-29.25c7.81,0,14.08,5.61,14.25,14.62Zm-20.08-5.39h11.39a5.52,5.52,0,0,0-5.56-4.34A6.06,6.06,0,0,0,232.18,486.76Z"/><path class="cls-15" d="M284.82,486.76V503.7h-8.75V488.63c0-3.24-1.92-5.44-4.73-5.44-3.46,0-5.72,2.36-5.72,7.69V503.7h-8.8V476.09h8.8v2.64a11.39,11.39,0,0,1,8.47-3.46C280.53,475.27,284.82,479.83,284.82,486.76Z"/><path class="cls-15" d="M300.77,468a4.86,4.86,0,0,1-5.12,4.9,4.81,4.81,0,0,1-5.06-4.9,5,5,0,0,1,5.06-5A5,5,0,0,1,300.77,468Zm-9.52,35.75V476.09h8.8V503.7Z"/><path class="cls-15" d="M333.93,492.15H313.69c.72,3.3,3,5.33,5.94,5.33a6.13,6.13,0,0,0,5.89-3.19l7.81,1.6c-2.37,5.83-7.37,8.63-13.7,8.63a14.63,14.63,0,0,1,.06-29.25c7.81,0,14.08,5.61,14.24,14.62Zm-20.07-5.39h11.38a5.5,5.5,0,0,0-5.55-4.34A6,6,0,0,0,313.86,486.76Z"/><path class="cls-15" d="M358.79,475.93l-.38,8.8h-1.6c-6.16,0-9.51,3.19-9.51,10.33v8.64h-8.8V476.09h8.8v5.28c2-3.3,5-5.66,9.51-5.66A7.33,7.33,0,0,1,358.79,475.93Z"/><path class="cls-15" d="M363,503.7V476.09h8.8V503.7Z"/><path class="cls-15" d="M407.63,503.7h-8.8v-2.2a12.44,12.44,0,0,1-8.58,3c-7.31,0-13.47-5.88-13.47-14.63s6.16-14.62,13.47-14.62a12.44,12.44,0,0,1,8.58,3v-2.2h8.8Zm-8.8-13.81a6.88,6.88,0,0,0-6.76-7.14c-3.85,0-6.66,2.91-6.66,7.14s2.81,7.15,6.66,7.15A6.85,6.85,0,0,0,398.83,489.89Z"/><path class="cls-15" d="M440.47,513.05H431l4.46-10.29L424,476h9.46L440,492.15,447,476h9.45Z"/><path class="cls-15" d="M501.18,501c0,8.52-6.49,13.2-15.45,13.2-6.32,0-11.16-2.2-13.86-6.66l7.32-4c2.09,2.48,3.63,3.41,6.48,3.41,4,0,6.88-2.36,6.88-6.71v-.77c-2,1.71-4.73,2.64-8.3,2.64a13.42,13.42,0,0,1,0-26.83c3.57,0,6.32.93,8.3,2.64v-1.82h8.63Zm-8.63-12.38a6.23,6.23,0,0,0-6.44-6.26c-3.84,0-6.59,2.58-6.59,6.26a6.52,6.52,0,0,0,13,0Z"/><path class="cls-15" d="M534.68,492.15H514.44c.71,3.3,3,5.33,5.94,5.33a6.12,6.12,0,0,0,5.88-3.19l7.81,1.6c-2.36,5.83-7.37,8.63-13.69,8.63a14.63,14.63,0,0,1,0-29.25c7.81,0,14.08,5.61,14.25,14.62Zm-20.08-5.39H526a5.52,5.52,0,0,0-5.56-4.34A6.06,6.06,0,0,0,514.6,486.76Z"/><path class="cls-15" d="M546,494.73c.38,2.37,2.52,3.25,4.89,3.25s3.57-1,3.57-2.2c0-.94-.71-1.65-2.75-2l-5.61-1.1c-5.11-.93-8-3.68-8-8,0-5.67,4.89-9.35,11.87-9.35s11.44,3.13,12.54,7.92l-8,1.59c-.27-1.7-1.92-3.24-4.62-3.24-2.36,0-3.13,1.15-3.13,2.14,0,.77.33,1.54,2.09,1.92l6.49,1.32c5.22,1.1,7.64,4.24,7.64,8.31,0,6.1-5.28,9.29-12.54,9.29-6.48,0-12-2.36-13-8Z"/><path class="cls-15" d="M588,502.49a15.06,15.06,0,0,1-7.54,2c-6.87,0-11-3.74-11-11V483.08h-5v-7h5V468h8.79v8.14h8.14v7h-8.14v9.56c0,2.86,1.38,4,3.69,4a9,9,0,0,0,4-1.1Z"/><path class="cls-15" d="M601.34,468a5.09,5.09,0,0,1-10.17,0,5.09,5.09,0,0,1,10.17,0Zm-9.51,35.75V476.09h8.79V503.7Z"/><path class="cls-15" d="M636,489.89c0,8.75-6.93,14.58-15.12,14.58-8.36,0-15.29-5.83-15.29-14.58s6.93-14.51,15.29-14.51C629.11,475.38,636,481.21,636,489.89Zm-8.47,0a6.75,6.75,0,1,0-6.65,7.15A6.86,6.86,0,0,0,627.57,489.89Z"/><path class="cls-15" d="M668.6,486.76V503.7h-8.74V488.63c0-3.24-1.93-5.44-4.73-5.44-3.47,0-5.72,2.36-5.72,7.69V503.7h-8.8V476.09h8.8v2.64a11.37,11.37,0,0,1,8.47-3.46C664.31,475.27,668.6,479.83,668.6,486.76Z"/><path class="cls-15" d="M169.32,569.7h-8.8v-2.2a12.47,12.47,0,0,1-8.58,3c-7.31,0-13.47-5.88-13.47-14.63s6.16-14.62,13.47-14.62a12.47,12.47,0,0,1,8.58,3v-2.2h8.8Zm-8.8-13.81a6.88,6.88,0,0,0-6.77-7.14c-3.85,0-6.65,2.91-6.65,7.14s2.8,7.15,6.65,7.15A6.85,6.85,0,0,0,160.52,555.89Z"/><path class="cls-15" d="M222,552.43V569.7h-8.74V554.3c0-3.13-2-5.11-4.62-5.11-3.24,0-5.39,2.36-5.39,7V569.7h-8.8V554.3c0-3.13-2-5.11-4.67-5.11-3.19,0-5.28,2.36-5.28,7V569.7h-8.8V542.09h8.8v2.53a10.44,10.44,0,0,1,8.14-3.35,10.24,10.24,0,0,1,9,4.67,11.9,11.9,0,0,1,9.79-4.67C217.33,541.27,222,545.72,222,552.43Z"/><path class="cls-15" d="M258.86,555.89c0,8.75-6.16,14.63-13.48,14.63a12.47,12.47,0,0,1-8.58-3v2.2H228V530.1h8.8v14.19a12.47,12.47,0,0,1,8.58-3C252.7,541.27,258.86,547.21,258.86,555.89Zm-8.64,0c0-4.23-2.8-7.14-6.65-7.14a7.16,7.16,0,0,0,0,14.29C247.42,563,250.22,560.18,250.22,555.89Z"/><path class="cls-15" d="M273.38,534a4.86,4.86,0,0,1-5.12,4.9,4.81,4.81,0,0,1-5.05-4.9,5,5,0,0,1,5.05-5A5,5,0,0,1,273.38,534Zm-9.52,35.75V542.09h8.8V569.7Z"/><path class="cls-15" d="M306.54,558.15H286.3c.72,3.3,3,5.33,5.94,5.33a6.13,6.13,0,0,0,5.89-3.19l7.81,1.6c-2.37,5.83-7.37,8.63-13.7,8.63a14.63,14.63,0,0,1,.06-29.25c7.81,0,14.08,5.61,14.24,14.62Zm-20.07-5.39h11.38a5.5,5.5,0,0,0-5.55-4.34A6,6,0,0,0,286.47,552.76Z"/><path class="cls-15" d="M339.1,552.76V569.7h-8.74V554.63c0-3.25-1.93-5.44-4.73-5.44-3.47,0-5.72,2.36-5.72,7.69V569.7h-8.8V542.09h8.8v2.64a11.37,11.37,0,0,1,8.47-3.46C334.81,541.27,339.1,545.83,339.1,552.76Z"/><path class="cls-15" d="M365.56,568.49a15.06,15.06,0,0,1-7.54,2c-6.87,0-11-3.74-11-11V549.08h-5v-7h5V534h8.8v8.14H364v7h-8.14v9.56c0,2.86,1.38,4,3.69,4a9,9,0,0,0,4-1.1Z"/><path class="cls-15" d="M397.4,569.7h-8.8v-2.2a12.44,12.44,0,0,1-8.58,3c-7.31,0-13.47-5.88-13.47-14.63s6.16-14.62,13.47-14.62a12.44,12.44,0,0,1,8.58,3v-2.2h8.8Zm-8.8-13.81a6.88,6.88,0,0,0-6.76-7.14c-3.85,0-6.66,2.91-6.66,7.14S378,563,381.84,563A6.85,6.85,0,0,0,388.6,555.89Z"/><path class="cls-15" d="M403.78,569.7V530.1h8.8v39.6Z"/><polygon class="cls-1" points="617 471 625 471 632 463 623 463 617 471"/><polygon class="cls-1" points="363 472 371 472 378 464 369 464 363 472"/></svg>