<svg id="Capa_1" data-name="Capa 1" xmlns="http://www.w3.org/2000/svg" xmlns:xlink="http://www.w3.org/1999/xlink" viewBox="0 0 1440 1024"><defs><style>.cls-1{fill:url(#Degradado_sin_nombre_9);}.cls-2{fill:url(#Degradado_sin_nombre_9-3);}</style><linearGradient id="Degradado_sin_nombre_9" x1="-5840" y1="977" x2="-4400" y2="977" gradientTransform="matrix(-1, 0, 0, 1, -4400, -930)" gradientUnits="userSpaceOnUse"><stop offset="0" stop-color="#8cf2ff"/><stop offset="1" stop-color="#4e88dd"/></linearGradient><linearGradient id="Degradado_sin_nombre_9-3" x1="-5840" y1="883" x2="-4400" y2="883" gradientTransform="translate(-4400 1024) rotate(180)" xlink:href="#Degradado_sin_nombre_9"/></defs><title>LineaDegradado</title><path class="cls-1" d="M0,0A2864.51,2864.51,0,0,0,715,92,2864,2864,0,0,0,1440,0V94H0Z"/><path class="cls-1" d="M0,0A2864.51,2864.51,0,0,0,715,92,2864,2864,0,0,0,1440,0V94H0Z"/><path class="cls-2" d="M0,188a2863.26,2863.26,0,0,1,1440,0V94H0Z"/><path class="cls-2" d="M0,188a2863.26,2863.26,0,0,1,1440,0V94H0Z"/></svg>