<svg id="Capa_1" data-name="Capa 1" xmlns="http://www.w3.org/2000/svg" xmlns:xlink="http://www.w3.org/1999/xlink" viewBox="0 0 1440 1024"><defs><style>.cls-1{fill:url(#Degradado_sin_nombre_11);}.cls-2{fill:url(#Degradado_sin_nombre_11-3);}</style><linearGradient id="Degradado_sin_nombre_11" x1="7280" y1="977" x2="5840" y2="977" gradientTransform="matrix(-1, 0, 0, 1, 7280, -930)" gradientUnits="userSpaceOnUse"><stop offset="0" stop-color="#3d6af2"/><stop offset="1" stop-color="#5596e4"/></linearGradient><linearGradient id="Degradado_sin_nombre_11-3" x1="7280" y1="1885" x2="5840" y2="1885" gradientTransform="translate(7280 2026) rotate(180)" xlink:href="#Degradado_sin_nombre_11"/></defs><title>skajdkdx</title><path class="cls-1" d="M0,0A2864.51,2864.51,0,0,0,715,92,2864,2864,0,0,0,1440,0V94H0Z"/><path class="cls-1" d="M0,0A2864.51,2864.51,0,0,0,715,92,2864,2864,0,0,0,1440,0V94H0Z"/><path class="cls-2" d="M0,188a2863.26,2863.26,0,0,1,1440,0V94H0Z"/><path class="cls-2" d="M0,188a2863.26,2863.26,0,0,1,1440,0V94H0Z"/></svg>