<svg id="Capa_1" data-name="Capa 1" xmlns="http://www.w3.org/2000/svg" viewBox="0 0 1143.4 311.14"><defs><style>.cls-1{fill:#a07048;}.cls-2{fill:#392814;}.cls-2,.cls-4,.cls-5,.cls-6{stroke:#fff;stroke-miterlimit:10;}.cls-2,.cls-4{stroke-width:2px;}.cls-3{opacity:0.9;}.cls-4,.cls-5,.cls-6{fill:none;}.cls-5{stroke-width:3px;}.cls-7,.cls-8{fill:#fff;}.cls-8{font-size:182.74px;font-family:GalanoGrotesqueDEMO-Bold, Galano Grotesque DEMO;font-weight:700;}.cls-9{letter-spacing:0.01em;}</style></defs><title>logoparticulas</title><circle class="cls-1" cx="155.57" cy="155.57" r="155.57"/><circle class="cls-2" cx="155.57" cy="155.57" r="137.46"/><g class="cls-3"><line class="cls-4" x1="102.33" y1="303.71" x2="102.32" y2="13.69"/><line class="cls-4" x1="125.6" y1="306.9" x2="125.58" y2="12.71"/><line class="cls-4" x1="217.28" y1="297.68" x2="217.26" y2="14.99"/><line class="cls-4" x1="239.17" y1="286.79" x2="239.15" y2="27.31"/><polyline class="cls-5" points="67.76 53.19 86.79 53.16 244.01 52.91"/><line class="cls-6" x1="64.14" y1="258.2" x2="247.34" y2="257.9"/><line class="cls-6" x1="70.87" y1="262.95" x2="242.62" y2="263.32"/><line class="cls-6" x1="81.4" y1="231.65" x2="81.6" y2="272.08"/><line class="cls-6" x1="80.64" y1="45.81" x2="80.85" y2="86.24"/><line class="cls-6" x1="146.31" y1="231.65" x2="146.51" y2="272.08"/><circle class="cls-4" cx="92.08" cy="247.18" r="10.25"/><circle class="cls-4" cx="135.84" cy="247.18" r="10.25"/><circle class="cls-4" cx="91.15" cy="64.88" r="10.18"/></g><path class="cls-7" d="M199.64,95.69a69.26,69.26,0,1,0,69.25,69.25A69.26,69.26,0,0,0,199.64,95.69ZM188.4,221.25A54.64,54.64,0,1,1,243,166.62,54.63,54.63,0,0,1,188.4,221.25Z" transform="translate(-28.6 -44.07)"/><rect class="cls-7" x="101.78" y="52.91" width="23.81" height="204.52"/><path class="cls-7" d="M110.1,302.82l10.28-.59a10.33,10.33,0,0,0,10-7.13l23.81-.76a9.26,9.26,0,0,0,3.41,6c1.55,1.1,3.14,1.26,5.27,1.42,3,.22,7,.41,11.82.39v5.07H110.16Z" transform="translate(-28.6 -44.07)"/><path class="cls-7" d="M131.91,110.14a20.49,20.49,0,0,0-1.53-4.8,11,11,0,0,0-7.74-7.2A21.47,21.47,0,0,0,117.29,97h21.34Z" transform="translate(-28.6 -44.07)"/><text class="cls-8" transform="translate(330.4 208.8)">a<tspan class="cls-9" x="117.68" y="0">r</tspan><tspan x="199.37" y="0">ticulas</tspan></text></svg>